<?xml version="1.0" encoding="UTF-8" standalone="no"?>
<!-- Generator: Adobe Illustrator 13.0.0, SVG Export Plug-In . SVG Version: 6.00 Build 14948)  -->

<svg
   xmlns:dc="http://purl.org/dc/elements/1.1/"
   xmlns:cc="http://creativecommons.org/ns#"
   xmlns:rdf="http://www.w3.org/1999/02/22-rdf-syntax-ns#"
   xmlns:svg="http://www.w3.org/2000/svg"
   xmlns="http://www.w3.org/2000/svg"
   xmlns:xlink="http://www.w3.org/1999/xlink"
   xmlns:sodipodi="http://sodipodi.sourceforge.net/DTD/sodipodi-0.dtd"
   xmlns:inkscape="http://www.inkscape.org/namespaces/inkscape"
   version="1.1"
   id="Layer_8"
   x="0px"
   y="0px"
   width="300.519px"
   height="300.52px"
   viewBox="0 0 300.519 300.52"
   enable-background="new 0 0 300.519 300.52"
   xml:space="preserve"
   sodipodi:version="0.32"
   inkscape:version="0.48.0 r9654"
   sodipodi:docname="xaudiocopy.svg"
   inkscape:output_extension="org.inkscape.output.svg.inkscape"
   inkscape:export-filename="D:\Giorgio\Sviluppo\Progetti Python Glade\Icon.png"
   inkscape:export-xdpi="14.375084"
   inkscape:export-ydpi="14.375084"><sodipodi:namedview
   inkscape:window-height="849"
   inkscape:window-width="1280"
   inkscape:pageshadow="2"
   inkscape:pageopacity="0.0"
   guidetolerance="10.0"
   gridtolerance="10.0"
   objecttolerance="10.0"
   borderopacity="1.0"
   bordercolor="#666666"
   pagecolor="#ffffff"
   id="base"
   showgrid="false"
   inkscape:zoom="2.535605"
   inkscape:cx="150.25951"
   inkscape:cy="150.25999"
   inkscape:window-x="0"
   inkscape:window-y="0"
   inkscape:current-layer="layer2"
   inkscape:window-maximized="0" /><metadata
   id="metadata121"><rdf:RDF><cc:Work
       rdf:about=""><dc:format>image/svg+xml</dc:format><dc:type
         rdf:resource="http://purl.org/dc/dcmitype/StillImage" /></cc:Work></rdf:RDF></metadata><defs
   id="defs119"><linearGradient
   id="linearGradient7378"><stop
     style="stop-color:#ff4a00;stop-opacity:1;"
     offset="0"
     id="stop7380" /><stop
     id="stop7388"
     offset="0.5"
     style="stop-color:#ff4a00;stop-opacity:0.74901961;" /><stop
     id="stop7386"
     offset="0.5"
     style="stop-color:#ff4a00;stop-opacity:0.49803922;" /><stop
     style="stop-color:#ff4a00;stop-opacity:0;"
     offset="1"
     id="stop7382" /></linearGradient><linearGradient
   id="linearGradient5567"><stop
     id="stop5569"
     offset="0"
     style="stop-color:#ff2500;stop-opacity:1;" /><stop
     style="stop-color:#ff3702;stop-opacity:0.49803922;"
     offset="0.5956676"
     id="stop5575" /><stop
     id="stop5571"
     offset="1"
     style="stop-color:#ff4a00;stop-opacity:0;" /></linearGradient><inkscape:perspective
   sodipodi:type="inkscape:persp3d"
   inkscape:vp_x="0 : 150.25999 : 1"
   inkscape:vp_y="0 : 1000 : 0"
   inkscape:vp_z="300.51901 : 150.25999 : 1"
   inkscape:persp3d-origin="150.25951 : 100.17333 : 1"
   id="perspective123" />
<filter
   id="Gaussian_Blur2">
<feGaussianBlur
   id="feGaussianBlur2636"
   stdDeviation="1"
   in="SourceGraphic" />
</filter>
<filter
   id="Gaussian_Blur">
<feGaussianBlur
   id="feGaussianBlur2633"
   stdDeviation="3"
   in="SourceGraphic" />
</filter>
<inkscape:perspective
   id="perspective2698"
   inkscape:persp3d-origin="64 : 42.666667 : 1"
   inkscape:vp_z="128 : 64 : 1"
   inkscape:vp_y="0 : 1000 : 0"
   inkscape:vp_x="0 : 64 : 1"
   sodipodi:type="inkscape:persp3d" /><linearGradient
   inkscape:collect="always"
   xlink:href="#SVGID_1_"
   id="linearGradient2740"
   gradientUnits="userSpaceOnUse"
   x1="149.0093"
   y1="294.1934"
   x2="149.0093"
   y2="3.8267" /><linearGradient
   inkscape:collect="always"
   xlink:href="#SVGID_1_"
   id="linearGradient2777"
   gradientUnits="userSpaceOnUse"
   x1="149.0093"
   y1="294.1934"
   x2="149.0093"
   y2="3.8267" />
	
	
	

		
	<radialGradient
   inkscape:collect="always"
   xlink:href="#SVGID_5_"
   id="radialGradient3903"
   cx="142.9639"
   cy="147.6965"
   fx="142.9639"
   fy="147.6965"
   r="14.644906"
   gradientUnits="userSpaceOnUse" /><radialGradient
   inkscape:collect="always"
   xlink:href="#SVGID_5_"
   id="radialGradient5355"
   cx="142.9639"
   cy="147.6965"
   fx="142.9639"
   fy="147.6965"
   r="14.394987"
   gradientUnits="userSpaceOnUse" /><filter
   inkscape:collect="always"
   id="filter5357"><feBlend
     inkscape:collect="always"
     mode="multiply"
     in2="BackgroundImage"
     id="feBlend5359" /></filter><linearGradient
   y2="3.8267"
   x2="149.0093"
   y1="294.1934"
   x1="149.0093"
   gradientUnits="userSpaceOnUse"
   id="linearGradient2729"
   xlink:href="#SVGID_1_"
   inkscape:collect="always" /><linearGradient
   gradientUnits="userSpaceOnUse"
   y2="98.399361"
   x2="183.01855"
   y1="98.399361"
   x1="58.75"
   id="linearGradient5573"
   xlink:href="#linearGradient5567"
   inkscape:collect="always" /><linearGradient
   gradientUnits="userSpaceOnUse"
   y2="98.399361"
   x2="183.01855"
   y1="98.399361"
   x1="58.75"
   id="linearGradient5573-997"
   xlink:href="#linearGradient5567-452"
   inkscape:collect="always" /><linearGradient
   id="linearGradient5567-452"><stop
     id="stop6297"
     offset="0"
     style="stop-color:#e62100;stop-opacity:1;" /><stop
     style="stop-color:#e63202;stop-opacity:0.49803922;"
     offset="0.5956676"
     id="stop6299" /><stop
     id="stop6301"
     offset="1"
     style="stop-color:#e64300;stop-opacity:0;" /></linearGradient><linearGradient
   gradientUnits="userSpaceOnUse"
   y2="98.399361"
   x2="183.01855"
   y1="98.399361"
   x1="58.75"
   id="linearGradient5573-921"
   xlink:href="#linearGradient5567-319"
   inkscape:collect="always" /><linearGradient
   id="linearGradient5567-319"><stop
     id="stop6305"
     offset="0"
     style="stop-color:#e62100;stop-opacity:1;" /><stop
     style="stop-color:#e63202;stop-opacity:0.49803922;"
     offset="0.5956676"
     id="stop6307" /><stop
     id="stop6309"
     offset="1"
     style="stop-color:#e64300;stop-opacity:0;" /></linearGradient><linearGradient
   gradientUnits="userSpaceOnUse"
   y2="98.399361"
   x2="183.01855"
   y1="98.399361"
   x1="58.75"
   id="linearGradient5573-32"
   xlink:href="#linearGradient5567-479"
   inkscape:collect="always" /><linearGradient
   id="linearGradient5567-479"><stop
     id="stop6313"
     offset="0"
     style="stop-color:#e62100;stop-opacity:1;" /><stop
     style="stop-color:#e63202;stop-opacity:0.49803922;"
     offset="0.5956676"
     id="stop6315" /><stop
     id="stop6317"
     offset="1"
     style="stop-color:#e64300;stop-opacity:0;" /></linearGradient><linearGradient
   gradientUnits="userSpaceOnUse"
   y2="98.399361"
   x2="183.01855"
   y1="98.399361"
   x1="58.75"
   id="linearGradient5573-475"
   xlink:href="#linearGradient5567-465"
   inkscape:collect="always" /><linearGradient
   id="linearGradient5567-465"><stop
     id="stop6321"
     offset="0"
     style="stop-color:#e62100;stop-opacity:1;" /><stop
     style="stop-color:#e63202;stop-opacity:0.49803922;"
     offset="0.5956676"
     id="stop6323" /><stop
     id="stop6325"
     offset="1"
     style="stop-color:#e64300;stop-opacity:0;" /></linearGradient><filter
   inkscape:collect="always"
   id="filter6525"><feGaussianBlur
     inkscape:collect="always"
     stdDeviation="0.044268407"
     id="feGaussianBlur6527" /></filter><linearGradient
   gradientUnits="userSpaceOnUse"
   y2="98.399361"
   x2="183.01855"
   y1="98.399361"
   x1="58.75"
   id="linearGradient5573-997-679"
   xlink:href="#linearGradient5567-452-342"
   inkscape:collect="always" /><linearGradient
   id="linearGradient5567-452-342"><stop
     id="stop6575"
     offset="0"
     style="stop-color:#cf1e00;stop-opacity:1;" /><stop
     style="stop-color:#cf2d02;stop-opacity:0.49803922;"
     offset="0.5956676"
     id="stop6577" /><stop
     id="stop6579"
     offset="1"
     style="stop-color:#cf3c00;stop-opacity:0;" /></linearGradient><linearGradient
   gradientUnits="userSpaceOnUse"
   y2="98.399361"
   x2="183.01855"
   y1="98.399361"
   x1="58.75"
   id="linearGradient5573-921-530"
   xlink:href="#linearGradient5567-319-456"
   inkscape:collect="always" /><linearGradient
   id="linearGradient5567-319-456"><stop
     id="stop6583"
     offset="0"
     style="stop-color:#cf1e00;stop-opacity:1;" /><stop
     style="stop-color:#cf2d02;stop-opacity:0.49803922;"
     offset="0.5956676"
     id="stop6585" /><stop
     id="stop6587"
     offset="1"
     style="stop-color:#cf3c00;stop-opacity:0;" /></linearGradient><linearGradient
   gradientUnits="userSpaceOnUse"
   y2="98.399361"
   x2="183.01855"
   y1="98.399361"
   x1="58.75"
   id="linearGradient5573-32-545"
   xlink:href="#linearGradient5567-479-104"
   inkscape:collect="always" /><linearGradient
   id="linearGradient5567-479-104"><stop
     id="stop6591"
     offset="0"
     style="stop-color:#cf1e00;stop-opacity:1;" /><stop
     style="stop-color:#cf2d02;stop-opacity:0.49803922;"
     offset="0.5956676"
     id="stop6593" /><stop
     id="stop6595"
     offset="1"
     style="stop-color:#cf3c00;stop-opacity:0;" /></linearGradient><linearGradient
   gradientUnits="userSpaceOnUse"
   y2="98.399361"
   x2="183.01855"
   y1="98.399361"
   x1="58.75"
   id="linearGradient5573-475-740"
   xlink:href="#linearGradient5567-465-523"
   inkscape:collect="always" /><linearGradient
   id="linearGradient5567-465-523"><stop
     id="stop6599"
     offset="0"
     style="stop-color:#cf1e00;stop-opacity:1;" /><stop
     style="stop-color:#cf2d02;stop-opacity:0.49803922;"
     offset="0.5956676"
     id="stop6601" /><stop
     id="stop6603"
     offset="1"
     style="stop-color:#cf3c00;stop-opacity:0;" /></linearGradient><linearGradient
   y2="98.399361"
   x2="183.01855"
   y1="98.399361"
   x1="58.75"
   gradientUnits="userSpaceOnUse"
   id="linearGradient6808"
   xlink:href="#linearGradient5567-452-342"
   inkscape:collect="always" /><linearGradient
   y2="98.399361"
   x2="183.01855"
   y1="98.399361"
   x1="58.75"
   gradientUnits="userSpaceOnUse"
   id="linearGradient6812"
   xlink:href="#linearGradient5567-452-342"
   inkscape:collect="always" /><linearGradient
   y2="98.399361"
   x2="183.01855"
   y1="98.399361"
   x1="58.75"
   gradientUnits="userSpaceOnUse"
   id="linearGradient6823"
   xlink:href="#linearGradient5567-452-342"
   inkscape:collect="always" /><linearGradient
   y2="98.399361"
   x2="183.01855"
   y1="98.399361"
   x1="58.75"
   gradientUnits="userSpaceOnUse"
   id="linearGradient6827"
   xlink:href="#linearGradient5567-452-342"
   inkscape:collect="always" /><linearGradient
   y2="98.399361"
   x2="183.01855"
   y1="98.399361"
   x1="58.75"
   gradientUnits="userSpaceOnUse"
   id="linearGradient6838"
   xlink:href="#linearGradient5567-452-342"
   inkscape:collect="always" /><linearGradient
   y2="98.399361"
   x2="183.01855"
   y1="98.399361"
   x1="58.75"
   gradientUnits="userSpaceOnUse"
   id="linearGradient6842"
   xlink:href="#linearGradient5567-452-342"
   inkscape:collect="always" /><linearGradient
   y2="98.399361"
   x2="183.01855"
   y1="98.399361"
   x1="58.75"
   gradientUnits="userSpaceOnUse"
   id="linearGradient6853"
   xlink:href="#linearGradient5567-452-342"
   inkscape:collect="always" /><linearGradient
   y2="98.399361"
   x2="183.01855"
   y1="98.399361"
   x1="58.75"
   gradientUnits="userSpaceOnUse"
   id="linearGradient6857"
   xlink:href="#linearGradient5567-452-342"
   inkscape:collect="always" /><linearGradient
   y2="98.399361"
   x2="183.01855"
   y1="98.399361"
   x1="58.75"
   gradientUnits="userSpaceOnUse"
   id="linearGradient6868"
   xlink:href="#linearGradient5567-452-342"
   inkscape:collect="always" /><linearGradient
   y2="98.399361"
   x2="183.01855"
   y1="98.399361"
   x1="58.75"
   gradientUnits="userSpaceOnUse"
   id="linearGradient6872"
   xlink:href="#linearGradient5567-452-342"
   inkscape:collect="always" /><linearGradient
   y2="98.399361"
   x2="183.01855"
   y1="98.399361"
   x1="58.75"
   gradientUnits="userSpaceOnUse"
   id="linearGradient6883"
   xlink:href="#linearGradient5567-452-342"
   inkscape:collect="always" /><linearGradient
   y2="98.399361"
   x2="183.01855"
   y1="98.399361"
   x1="58.75"
   gradientUnits="userSpaceOnUse"
   id="linearGradient6887"
   xlink:href="#linearGradient5567-452-342"
   inkscape:collect="always" /><linearGradient
   y2="98.399361"
   x2="183.01855"
   y1="98.399361"
   x1="58.75"
   gradientUnits="userSpaceOnUse"
   id="linearGradient6898"
   xlink:href="#linearGradient5567-452-342"
   inkscape:collect="always" /><linearGradient
   y2="98.399361"
   x2="183.01855"
   y1="98.399361"
   x1="58.75"
   gradientUnits="userSpaceOnUse"
   id="linearGradient6902"
   xlink:href="#linearGradient5567-452-342"
   inkscape:collect="always" /><linearGradient
   y2="98.399361"
   x2="183.01855"
   y1="98.399361"
   x1="58.75"
   gradientUnits="userSpaceOnUse"
   id="linearGradient6913"
   xlink:href="#linearGradient5567-452-342"
   inkscape:collect="always" /><linearGradient
   y2="98.399361"
   x2="183.01855"
   y1="98.399361"
   x1="58.75"
   gradientUnits="userSpaceOnUse"
   id="linearGradient6917"
   xlink:href="#linearGradient5567-452-342"
   inkscape:collect="always" /><linearGradient
   y2="98.399361"
   x2="183.01855"
   y1="98.399361"
   x1="58.75"
   gradientUnits="userSpaceOnUse"
   id="linearGradient6928"
   xlink:href="#linearGradient5567-452-342"
   inkscape:collect="always" /><linearGradient
   y2="98.399361"
   x2="183.01855"
   y1="98.399361"
   x1="58.75"
   gradientUnits="userSpaceOnUse"
   id="linearGradient6932"
   xlink:href="#linearGradient5567-452-342"
   inkscape:collect="always" /><linearGradient
   y2="98.399361"
   x2="183.01855"
   y1="98.399361"
   x1="58.75"
   gradientUnits="userSpaceOnUse"
   id="linearGradient6943"
   xlink:href="#linearGradient5567-452-342"
   inkscape:collect="always" /><linearGradient
   y2="98.399361"
   x2="183.01855"
   y1="98.399361"
   x1="58.75"
   gradientUnits="userSpaceOnUse"
   id="linearGradient6947"
   xlink:href="#linearGradient5567-452-342"
   inkscape:collect="always" /><linearGradient
   y2="98.399361"
   x2="183.01855"
   y1="98.399361"
   x1="58.75"
   gradientUnits="userSpaceOnUse"
   id="linearGradient6958"
   xlink:href="#linearGradient5567-452-342"
   inkscape:collect="always" /><linearGradient
   y2="98.399361"
   x2="183.01855"
   y1="98.399361"
   x1="58.75"
   gradientUnits="userSpaceOnUse"
   id="linearGradient6962"
   xlink:href="#linearGradient5567-452-342"
   inkscape:collect="always" /><filter
   inkscape:collect="always"
   id="filter7374"><feGaussianBlur
     inkscape:collect="always"
     stdDeviation="1.9868904"
     id="feGaussianBlur7376" /></filter><linearGradient
   inkscape:collect="always"
   xlink:href="#linearGradient7378"
   id="linearGradient7384"
   x1="38.705658"
   y1="144.19051"
   x2="255.92384"
   y2="144.19051"
   gradientUnits="userSpaceOnUse" /><linearGradient
   inkscape:collect="always"
   xlink:href="#linearGradient7378"
   id="linearGradient7438"
   gradientUnits="userSpaceOnUse"
   x1="38.705658"
   y1="144.19051"
   x2="255.92384"
   y2="144.19051" /><linearGradient
   inkscape:collect="always"
   xlink:href="#linearGradient7378"
   id="linearGradient7440"
   gradientUnits="userSpaceOnUse"
   x1="38.705658"
   y1="144.19051"
   x2="255.92384"
   y2="144.19051" /><linearGradient
   inkscape:collect="always"
   xlink:href="#linearGradient7378"
   id="linearGradient7442"
   gradientUnits="userSpaceOnUse"
   x1="38.705658"
   y1="144.19051"
   x2="255.92384"
   y2="144.19051" /><linearGradient
   inkscape:collect="always"
   xlink:href="#linearGradient7378"
   id="linearGradient7444"
   gradientUnits="userSpaceOnUse"
   x1="38.705658"
   y1="144.19051"
   x2="255.92384"
   y2="144.19051" /><linearGradient
   inkscape:collect="always"
   xlink:href="#linearGradient7378"
   id="linearGradient7446"
   gradientUnits="userSpaceOnUse"
   x1="38.705658"
   y1="144.19051"
   x2="255.92384"
   y2="144.19051" /><linearGradient
   inkscape:collect="always"
   xlink:href="#linearGradient7378"
   id="linearGradient7448"
   gradientUnits="userSpaceOnUse"
   x1="38.705658"
   y1="144.19051"
   x2="255.92384"
   y2="144.19051" /><linearGradient
   inkscape:collect="always"
   xlink:href="#linearGradient7378"
   id="linearGradient7450"
   gradientUnits="userSpaceOnUse"
   x1="38.705658"
   y1="144.19051"
   x2="255.92384"
   y2="144.19051" /><linearGradient
   inkscape:collect="always"
   xlink:href="#linearGradient7378"
   id="linearGradient7452"
   gradientUnits="userSpaceOnUse"
   x1="38.705658"
   y1="144.19051"
   x2="255.92384"
   y2="144.19051" /><linearGradient
   inkscape:collect="always"
   xlink:href="#linearGradient7378"
   id="linearGradient7454"
   gradientUnits="userSpaceOnUse"
   x1="38.705658"
   y1="144.19051"
   x2="255.92384"
   y2="144.19051" /><linearGradient
   inkscape:collect="always"
   xlink:href="#linearGradient7378"
   id="linearGradient7456"
   gradientUnits="userSpaceOnUse"
   x1="38.705658"
   y1="144.19051"
   x2="255.92384"
   y2="144.19051" /><linearGradient
   inkscape:collect="always"
   xlink:href="#linearGradient7378"
   id="linearGradient7458"
   gradientUnits="userSpaceOnUse"
   x1="38.705658"
   y1="144.19051"
   x2="255.92384"
   y2="144.19051" /><linearGradient
   inkscape:collect="always"
   xlink:href="#linearGradient5567-465-523"
   id="linearGradient7460"
   gradientUnits="userSpaceOnUse"
   x1="58.75"
   y1="98.399361"
   x2="183.01855"
   y2="98.399361" /><linearGradient
   inkscape:collect="always"
   xlink:href="#linearGradient5567-452-342"
   id="linearGradient7462"
   gradientUnits="userSpaceOnUse"
   x1="58.75"
   y1="98.399361"
   x2="183.01855"
   y2="98.399361" /><linearGradient
   inkscape:collect="always"
   xlink:href="#linearGradient5567-452-342-536"
   id="linearGradient7462-651"
   gradientUnits="userSpaceOnUse"
   x1="58.75"
   y1="98.399361"
   x2="183.01855"
   y2="98.399361" /><linearGradient
   id="linearGradient5567-452-342-536"><stop
     id="stop7573"
     offset="0"
     style="stop-color:#ba1b00;stop-opacity:1;" /><stop
     style="stop-color:#ba2902;stop-opacity:0.49803922;"
     offset="0.5956676"
     id="stop7575" /><stop
     id="stop7577"
     offset="1"
     style="stop-color:#ba3600;stop-opacity:0;" /></linearGradient><linearGradient
   gradientUnits="userSpaceOnUse"
   y2="98.399361"
   x2="183.01855"
   y1="98.399361"
   x1="58.75"
   id="linearGradient5573-921-530-370"
   xlink:href="#linearGradient5567-319-456-984"
   inkscape:collect="always" /><linearGradient
   id="linearGradient5567-319-456-984"><stop
     id="stop7581"
     offset="0"
     style="stop-color:#ba1b00;stop-opacity:1;" /><stop
     style="stop-color:#ba2902;stop-opacity:0.49803922;"
     offset="0.5956676"
     id="stop7583" /><stop
     id="stop7585"
     offset="1"
     style="stop-color:#ba3600;stop-opacity:0;" /></linearGradient><linearGradient
   gradientUnits="userSpaceOnUse"
   y2="98.399361"
   x2="183.01855"
   y1="98.399361"
   x1="58.75"
   id="linearGradient5573-32-545-563"
   xlink:href="#linearGradient5567-479-104-583"
   inkscape:collect="always" /><linearGradient
   id="linearGradient5567-479-104-583"><stop
     id="stop7589"
     offset="0"
     style="stop-color:#ba1b00;stop-opacity:1;" /><stop
     style="stop-color:#ba2902;stop-opacity:0.49803922;"
     offset="0.5956676"
     id="stop7591" /><stop
     id="stop7593"
     offset="1"
     style="stop-color:#ba3600;stop-opacity:0;" /></linearGradient><linearGradient
   inkscape:collect="always"
   xlink:href="#linearGradient5567-465-523-345"
   id="linearGradient7460-928"
   gradientUnits="userSpaceOnUse"
   x1="58.75"
   y1="98.399361"
   x2="183.01855"
   y2="98.399361" /><linearGradient
   id="linearGradient5567-465-523-345"><stop
     id="stop7597"
     offset="0"
     style="stop-color:#ba1b00;stop-opacity:1;" /><stop
     style="stop-color:#ba2902;stop-opacity:0.49803922;"
     offset="0.5956676"
     id="stop7599" /><stop
     id="stop7601"
     offset="1"
     style="stop-color:#ba3600;stop-opacity:0;" /></linearGradient></defs>
<g
   id="Stroke-DropShadow">
	<g
   id="g4">
		<g
   id="g6">
			<g
   id="g8"
   opacity="0.5">
				<circle
   cx="152.009"
   cy="152.009"
   r="148.509"
   id="circle10"
   sodipodi:cx="152.009"
   sodipodi:cy="152.009"
   sodipodi:rx="148.509"
   sodipodi:ry="148.509"
   transform="translate(-1.7495027,-1.7490027)" />
			</g>
			<circle
   cx="149.009"
   cy="149.009"
   r="148.509"
   id="circle12"
   fill="#E6E6E6" />
		</g>
		<circle
   cx="149.009"
   cy="149.009"
   r="148.509"
   id="circle14"
   stroke="#B2B2B2"
   fill="none" />
	</g>
</g>
<g
   transform="translate(0.3752486,0.3754986)"
   id="Gradient">
	<linearGradient
   id="SVGID_1_"
   gradientUnits="userSpaceOnUse"
   x1="149.00929"
   y1="294.19339"
   x2="149.00929"
   y2="3.8267">
		<stop
   offset="0"
   style="stop-color:#a0a0a0"
   id="stop18" />
		<stop
   offset="0.0494"
   style="stop-color:#b3b3b3"
   id="stop20" />
		<stop
   offset="0.1073"
   style="stop-color:#c2c2c2"
   id="stop22" />
		<stop
   offset="0.1709"
   style="stop-color:#cbcbcb"
   id="stop24" />
		<stop
   offset="0.25"
   style="stop-color:#cfcfcf"
   id="stop26" />
		<stop
   offset="0.3088"
   style="stop-color:#c7c7c7"
   id="stop28" />
		<stop
   offset="0.4044"
   style="stop-color:#b0b0b0"
   id="stop30" />
		<stop
   offset="0.5"
   style="stop-color:#959595"
   id="stop32" />
		<stop
   offset="0.5956"
   style="stop-color:#b0b0b0"
   id="stop34" />
		<stop
   offset="0.6912"
   style="stop-color:#c7c7c7"
   id="stop36" />
		<stop
   offset="0.75"
   style="stop-color:#cfcfcf"
   id="stop38" />
		<stop
   offset="0.8291"
   style="stop-color:#cbcbcb"
   id="stop40" />
		<stop
   offset="0.8927"
   style="stop-color:#c2c2c2"
   id="stop42" />
		<stop
   offset="0.9506"
   style="stop-color:#b3b3b3"
   id="stop44" />
		<stop
   offset="1"
   style="stop-color:#a0a0a0"
   id="stop46" />
	</linearGradient>
	<circle
   sodipodi:ry="145.183"
   sodipodi:rx="145.183"
   sodipodi:cy="149.009"
   sodipodi:cx="149.009"
   style="fill:url(#linearGradient2729)"
   cx="149.009"
   cy="149.009"
   r="145.183"
   id="circle48"
   d="m 294.192,149.009 c 0,80.18236 -65.00064,145.183 -145.183,145.183 C 68.826647,294.192 3.826004,229.19136 3.826004,149.009 3.826004,68.826647 68.826647,3.826004 149.009,3.826004 c 80.18236,0 145.183,65.000643 145.183,145.182996 z" />
</g>


<g
   transform="translate(3.6392513,36.353001)"
   id="Reflect">
	<defs
   id="defs81">
		<filter
   id="Adobe_OpacityMaskFilter_1_"
   filterUnits="userSpaceOnUse"
   x="0.5"
   y="0.5"
   width="290.48999"
   height="225.063">
			<feColorMatrix
   type="matrix"
   values="1 0 0 0 0  0 1 0 0 0  0 0 1 0 0  0 0 0 1 0"
   id="feColorMatrix84" />
		</filter>
	</defs>
	<mask
   maskUnits="userSpaceOnUse"
   x="0.5"
   y="0.5"
   width="290.49"
   height="225.063"
   id="SVGID_4_">
		<g
   style="filter:url(#Adobe_OpacityMaskFilter_1_)"
   id="g87">
			<linearGradient
   id="SVGID_5_"
   gradientUnits="userSpaceOnUse"
   x1="0.5"
   y1="113.0313"
   x2="290.9902"
   y2="113.0313">
				<stop
   offset="0"
   style="stop-color:#e6e6e6;stop-opacity:0.13;"
   id="stop90" />
				<stop
   offset="1"
   style="stop-color:#000000"
   id="stop92" />
			</linearGradient>
			<path
   style="fill:url(#SVGID_5_)"
   d="M 216.417,94.948 C 242.834,94.948 268.018,98.651 290.99,105.345 C 272.343,44.636 215.833,0.5 149.009,0.5 C 66.989,0.5 0.5,66.99 0.5,149.009 C 0.5,177.015 8.256,203.206 21.731,225.563 C 26.499,152.862 111.835,94.948 216.417,94.948 z"
   id="path94" />
		<linearGradient
   id="SVGID_5_-737"
   gradientUnits="userSpaceOnUse"
   x1="0.5"
   y1="113.0313"
   x2="290.9902"
   y2="113.0313">
				<stop
   offset="0"
   style="stop-color:#cfcfcf;stop-opacity:0.13;"
   id="stop2635" />
				<stop
   offset="1"
   style="stop-color:#000000"
   id="stop2637" />
			</linearGradient>
			</g>
	</mask>
	<path
   style="opacity:0.6;fill:#ffffff"
   mask="url(#SVGID_4_)"
   d="M 216.417,94.948 C 242.834,94.948 268.018,98.651 290.99,105.345 C 272.343,44.636 215.833,0.5 149.009,0.5 C 66.989,0.5 0.5,66.99 0.5,149.009 C 0.5,177.015 8.256,203.206 21.731,225.563 C 26.499,152.862 111.835,94.948 216.417,94.948 z"
   id="path96" />
</g>
<g
   transform="translate(-1.2487487,44.170001)"
   id="Reflect_Line">
	<defs
   id="defs99">
		<filter
   id="Adobe_OpacityMaskFilter_2_"
   filterUnits="userSpaceOnUse"
   x="25.698999"
   y="21.787001"
   width="249.868"
   height="166.85699">
			<feColorMatrix
   type="matrix"
   values="1 0 0 0 0  0 1 0 0 0  0 0 1 0 0  0 0 0 1 0"
   id="feColorMatrix102" />
		</filter>
	</defs>
	<mask
   maskUnits="userSpaceOnUse"
   x="25.699"
   y="21.787"
   width="249.868"
   height="166.857"
   id="SVGID_6_">
		<g
   style="filter:url(#Adobe_OpacityMaskFilter_2_)"
   id="g105">
			<linearGradient
   id="SVGID_7_"
   gradientUnits="userSpaceOnUse"
   x1="192.4541"
   y1="29.7139"
   x2="144.75301"
   y2="160.77161">
				<stop
   offset="0"
   style="stop-color:#e6e6e6"
   id="stop108" />
				<stop
   offset="0.3312"
   style="stop-color:#989898"
   id="stop110" />
				<stop
   offset="1"
   style="stop-color:#000000"
   id="stop112" />
			</linearGradient>
			<path
   style="fill:url(#SVGID_7_)"
   d="M 147.231,26.23 C 217.419,26.23 274.317,84 274.317,155.262 C 274.317,166.807 272.814,177.993 270.013,188.643 C 273.619,176.68 275.567,163.98 275.567,150.819 C 275.567,79.556 218.669,21.786 148.481,21.786 C 89.665,21.786 40.188,62.358 25.699,117.439 C 41.622,64.634 90.007,26.23 147.231,26.23 z"
   id="path114" />
		</g>
	</mask>
	<path
   style="opacity:0.56000001;fill:#ffffff"
   mask="url(#SVGID_6_)"
   d="M 147.231,26.23 C 217.419,26.23 274.317,84 274.317,155.262 C 274.317,166.807 272.814,177.993 270.013,188.643 C 273.619,176.68 275.567,163.98 275.567,150.819 C 275.567,79.556 218.669,21.786 148.481,21.786 C 89.665,21.786 40.188,62.358 25.699,117.439 C 41.622,64.634 90.007,26.23 147.231,26.23 z"
   id="path116" />
</g>
<path
   style="opacity:0.22000002;fill:#595959;stroke:#000000;stroke-width:0.66000003"
   d="M 149.38425,106.24822 C 125.56089,106.24822 106.24665,125.55982 106.24665,149.38582 C 106.24665,173.20918 125.55825,192.52078 149.38425,192.52078 C 173.21025,192.52078 192.52185,173.20654 192.52185,149.38318 C 192.52185,125.55982 173.20761,106.24822 149.38425,106.24822 z M 149.38425,163.41742 C 141.50121,163.41742 135.10977,157.02598 135.10977,149.14558 C 135.10977,141.26254 141.50121,134.87374 149.38425,134.87374 C 157.26465,134.87374 163.65873,141.26254 163.65873,149.14558 C 163.65609,157.02862 157.26465,163.41742 149.38425,163.41742 z"
   id="path2689" /><circle
   id="circle2691"
   r="10.693"
   cy="62.880001"
   cx="61.5"
   sodipodi:cx="61.5"
   sodipodi:cy="62.880001"
   sodipodi:rx="10.693"
   sodipodi:ry="10.693"
   style="opacity:0.5;fill:none;stroke:#484848;stroke-width:0.25"
   transform="matrix(2.64,0,0,2.64,-12.975749,-16.618701)" /><ellipse
   id="ellipse2693"
   ry="6.6669998"
   rx="6.7880001"
   cy="62.880001"
   cx="61.5"
   sodipodi:cx="61.5"
   sodipodi:cy="62.880001"
   sodipodi:rx="6.7880001"
   sodipodi:ry="6.6669998"
   style="opacity:0.3;fill:none;stroke:#484848;stroke-width:0.25"
   transform="matrix(2.64,0,0,2.64,-12.975749,-16.618701)" /><g
   inkscape:groupmode="layer"
   id="layer1"
   inkscape:label="fondo"
   style="filter:url(#filter5357)"><path
     sodipodi:type="arc"
     style="opacity:1;fill:#fefefe;fill-opacity:1;fill-rule:evenodd;stroke:#b3b3b3;stroke-width:1.31383830000000000;stroke-linecap:butt;stroke-linejoin:miter;marker:none;marker-start:none;marker-mid:none;marker-end:none;stroke-miterlimit:4;stroke-dasharray:none;stroke-dashoffset:0;stroke-opacity:1;visibility:visible;display:inline;overflow:visible;enable-background:accumulate"
     id="path2833"
     sodipodi:cx="142.9639"
     sodipodi:cy="147.6965"
     sodipodi:rx="14.394987"
     sodipodi:ry="14.394987"
     d="M 157.35888,147.6965 A 14.394987,14.394987 0 1 1 128.56891,147.6965 A 14.394987,14.394987 0 1 1 157.35888,147.6965 z"
     transform="matrix(1.10592,0,0,1.10592,-8.8045213,-14.488946)" /></g><g
   inkscape:label="Testo"
   id="layer2"
   inkscape:groupmode="layer"><g
     id="g8336"
     transform="translate(0,-4.0000002)"><flowRoot
       xml:space="preserve"
       id="flowRoot3520"
       style="font-size:40px;font-style:normal;font-weight:normal;fill:#000000;fill-opacity:1;stroke:none;font-family:Bitstream Vera Sans"><flowRegion
         id="flowRegion3522"><rect
           id="rect3524"
           width="216.91077"
           height="201.13544"
           x="43.776524"
           y="46.931602" /></flowRegion><flowPara
         id="flowPara3526" /></flowRoot><g
       id="g6964"
       transform="translate(6.7767298,9.366195)"
       style="fill:#787878;fill-opacity:1;filter:url(#filter7374)"><path
         style="font-size:72px;font-style:italic;font-variant:normal;font-weight:normal;font-stretch:normal;text-align:start;line-height:125%;writing-mode:lr-tb;text-anchor:start;opacity:0.09090899;fill:#787878;fill-opacity:1;stroke:#3f3f3f;stroke-width:2.25659895;stroke-linecap:round;stroke-linejoin:miter;stroke-miterlimit:10;stroke-opacity:0.4107143;filter:url(#filter6525);font-family:Impact;-inkscape-font-specification:Impact Italic"
         d="m 168.4375,69.28125 c -9.57109,0.161398 -18.52996,6.655262 -21.11035,16.000422 -3.43521,10.264556 -7.66283,20.425078 -9.95215,30.968328 -1.31458,4.2244 0.77157,8.99429 5.1875,10.21875 11.22349,3.62941 24.9856,-1.79953 28.87473,-13.30737 1.18018,-2.82189 2.21246,-5.69894 3.18777,-8.59888 -4.59375,0 -9.1875,0 -13.78125,0 -2.0133,4.50765 -2.40533,10.18538 -5.8125,13.8125 -1.64086,1.21539 -5.1432,0.49679 -4.3125,-2.15625 3.43412,-11.51635 7.59092,-22.969156 11.53606,-34.367788 0.52584,-2.675395 3.65572,-5.234097 6.21394,-3.382212 1.29317,2.495749 -1.02361,5.421261 -1.45315,7.950882 -0.17961,2.339937 -3.67826,7.054302 -1.67185,7.830368 4.26042,0 8.52083,0 12.78125,0 1.74104,-6.001409 4.88102,-11.968235 4.125,-18.34375 -1.68346,-5.787368 -8.64032,-6.910304 -13.8125,-6.625 z M 75.375,95.1875 c -5.230693,10.37318 -10.548438,20.77286 -15.8125,31.15625 4.427083,0 8.854167,0 13.28125,0 3.924348,-7.89993 7.839489,-15.76764 11.40625,-23.78125 -1.293024,7.88824 -2.654801,15.78825 -3.09375,23.78125 8.958333,0 17.916667,0 26.875,0 1.6526,-3.2826 2.727,-7.46484 4.71875,-10.21875 2.34998,0.40841 7.68011,-1.48507 5.25927,2.55568 0.10661,2.32684 -3.69876,7.64847 -0.57177,7.66307 4.19792,0 8.39583,0 12.59375,0 3.5625,-18.63542 7.125,-37.270833 10.6875,-55.90625 -6.82292,0 -13.64583,0 -20.46875,0 -8.80417,18.624012 -17.5911,37.25619 -26.40625,55.875 1.048265,-10.4708 1.930921,-20.99486 3.03125,-31.4375 4.4375,-8.145833 8.875,-16.291667 13.3125,-24.4375 -3.75,0 -7.5,0 -11.25,0 -3.228484,5.927455 -6.464898,11.850595 -9.6875,17.78125 1.014536,-5.904236 1.633455,-11.865674 2.5625,-17.78125 -4.427083,0 -8.854167,0 -13.28125,0 -1.052083,8.25 -2.104167,16.5 -3.15625,24.75 z m 52.03125,-12.40625 c -2.1199,8.041123 -4.06002,16.110327 -5.9375,24.25 -2.02523,-0.53017 -7.92324,1.52377 -5.36209,-2.07275 3.88039,-9.077392 8.13393,-17.78607 12.42459,-26.7085 -0.375,1.510417 -0.75,3.020833 -1.125,4.53125 z"
         id="path6966"
         transform="matrix(1.6918527,0,0,2.9018086,-56.816059,-141.38831)"
         inkscape:connector-curvature="0" /><path
         style="font-size:72px;font-style:italic;font-variant:normal;font-weight:normal;font-stretch:normal;text-align:start;line-height:125%;writing-mode:lr-tb;text-anchor:start;opacity:0.09090899;fill:#787878;fill-opacity:1;stroke:#3f3f3f;stroke-width:2.25659895;stroke-linecap:round;stroke-linejoin:miter;stroke-miterlimit:10;stroke-opacity:0.4107143;filter:url(#filter6525);font-family:Impact;-inkscape-font-specification:Impact Italic"
         d="m 168.4375,69.1875 c -9.19287,0.128678 -18.18811,6.264043 -20.89835,15.239742 -3.44649,9.80424 -7.10313,19.600448 -9.85165,29.635258 -0.99334,3.77925 -1.51537,8.94186 2.46875,11.28125 5.34174,3.23502 12.41336,2.71583 18.0613,0.88885 5.94711,-2.11447 10.98943,-6.62153 13.09495,-12.5451 1.2937,-3.01662 2.41083,-6.10077 3.4375,-9.21875 -4.65625,0 -9.3125,0 -13.96875,0 -1.86898,4.45256 -2.50799,9.67723 -5.46875,13.53125 -1.47504,1.55465 -5.4019,0.94576 -4.46875,-1.75 2.45898,-9.03427 6.01756,-17.977071 8.89425,-26.973985 1.54733,-3.533734 1.91324,-8.022127 4.79325,-10.744765 1.46384,-1.06467 4.88657,-0.736707 4.21875,1.71875 -1.09182,4.765124 -3.05437,9.394503 -4.53125,14.09375 4.65625,0 9.3125,0 13.96875,0 1.77882,-5.905771 4.73368,-11.795692 4.25,-18.0625 -1.40056,-6.14513 -8.65288,-7.407803 -14,-7.09375 z m -93.15625,26 c -5.290067,10.41747 -10.583601,20.8332 -15.875,31.25 4.5,0 9,0 13.5,0 3.799841,-7.67807 7.634339,-15.33094 11.125,-23.15625 -1.248175,7.68093 -2.564463,15.37386 -2.96875,23.15625 9.010417,0 18.020833,0 27.03125,0 1.47424,-3.4037 2.9073,-6.82652 4.40625,-10.21875 1.71226,0.36289 5.38037,-0.71214 5.9375,0.5 -0.875,3.23958 -1.75,6.47917 -2.625,9.71875 4.77083,0 9.54167,0 14.3125,0 3.57292,-18.69792 7.14583,-37.395833 10.71875,-56.09375 -6.88542,0 -13.77083,0 -20.65625,0 -8.73219,18.47773 -17.43983,36.96712 -26.1875,55.4375 1.010903,-10.27677 1.884847,-20.58604 2.96875,-30.84375 4.46875,-8.197917 8.9375,-16.395833 13.40625,-24.59375 -3.84375,0 -7.6875,0 -11.53125,0 -3.133342,5.771956 -6.287011,11.532911 -9.40625,17.3125 0.980852,-5.749842 1.555653,-11.558379 2.5,-17.3125 -4.489583,0 -8.979167,0 -13.46875,0 -1.0625,8.28125 -2.125,16.5625 -3.1875,24.84375 z M 127.3125,82.75 c -2.11927,8.027227 -4.1239,16.085613 -5.9375,24.1875 -1.55525,-0.51931 -6.2831,1.10541 -5.59656,-0.9319 3.84756,-9.115417 8.17518,-18.018162 12.44031,-26.9431 -0.30208,1.229167 -0.60417,2.458333 -0.90625,3.6875 z"
         id="path6968"
         transform="matrix(1.6918527,0,0,2.9018086,-56.816059,-141.38831)"
         inkscape:connector-curvature="0" /><path
         style="font-size:72px;font-style:italic;font-variant:normal;font-weight:normal;font-stretch:normal;text-align:start;line-height:125%;writing-mode:lr-tb;text-anchor:start;opacity:0.09090899;fill:#787878;fill-opacity:1;stroke:#3f3f3f;stroke-width:2.25659895;stroke-linecap:round;stroke-linejoin:miter;stroke-miterlimit:10;stroke-opacity:0.4107143;filter:url(#filter6525);font-family:Impact;-inkscape-font-specification:Impact Italic"
         d="m 168.4375,69.09375 c -8.9545,0.161844 -17.86461,5.894637 -20.6875,14.5625 -3.41262,9.089835 -6.46426,18.33613 -9.43912,27.57886 -0.93538,4.08371 -2.77016,8.94918 0.0641,12.63989 3.10782,3.61263 8.48789,4.02158 13.03125,3.8125 7.27029,-0.36062 14.74053,-4.2523 18.34375,-10.59375 2.18347,-4.03156 3.65791,-8.39637 5.15625,-12.71875 -4.72917,0 -9.45833,0 -14.1875,0 -1.74369,4.39805 -2.62249,9.31269 -5.1875,13.28125 -1.09965,1.36854 -4.45702,1.71319 -4.6875,-0.53125 0.86307,-5.29901 3.25278,-10.26389 4.77949,-15.41215 2.55514,-7.080199 4.55533,-14.382335 7.50176,-21.3066 0.7283,-2.047341 3.76181,-3.238924 5.40625,-1.5625 0.52751,2.296818 -0.96669,4.687064 -1.51007,6.945298 -0.98623,2.882817 -1.97245,5.765635 -2.95868,8.648452 4.72917,0 9.45833,0 14.1875,0 1.82171,-5.826219 4.5775,-11.651808 4.34375,-17.75 -0.79546,-5.434149 -6.81938,-7.609703 -11.73724,-7.606239 -0.80585,-0.04377 -1.61301,-0.0079 -2.41901,0.01249 z m -93.25,26.0625 c -5.283324,10.46555 -10.629864,20.91546 -15.9375,31.375 4.572917,0 9.145833,0 13.71875,0 C 76.636933,119.04608 80.413691,111.6138 83.8125,104 c -1.300028,7.49291 -2.426464,14.92875 -2.84375,22.53125 9.072917,0 18.145833,0 27.21875,0 1.46239,-3.40437 2.89343,-6.82326 4.375,-10.21875 1.96875,0 3.9375,0 5.90625,0 -0.9715,3.39287 -1.84655,6.81479 -2.78125,10.21875 4.85417,0 9.70833,0 14.5625,0 3.58333,-18.76042 7.16667,-37.520833 10.75,-56.28125 -6.95833,0 -13.91667,0 -20.875,0 -8.6595,18.321371 -17.2927,36.65526 -25.96875,54.96875 0.972933,-10.07973 1.840569,-20.19481 2.90625,-30.25 4.48958,-8.239583 8.97917,-16.479167 13.46875,-24.71875 -3.91667,0 -7.83333,0 -11.75,0 -3.051373,5.614969 -6.108935,11.226579 -9.15625,16.84375 1.006839,-5.591075 1.456891,-11.23154 2.4375,-16.84375 -4.5625,0 -9.125,0 -13.6875,0 -1.0625,8.302083 -2.125,16.604167 -3.1875,24.90625 z m 52.03125,-12.4375 c -2.10201,8.007557 -4.13569,16.038882 -5.90625,24.125 -1.91667,0 -3.83333,0 -5.75,0 3.74873,-9.118932 8.08897,-17.983886 12.34375,-26.875 -0.22917,0.916667 -0.45833,1.833333 -0.6875,2.75 z"
         id="path6970"
         transform="matrix(1.6918527,0,0,2.9018086,-56.816059,-141.38831)"
         inkscape:connector-curvature="0" /><path
         style="font-size:72px;font-style:italic;font-variant:normal;font-weight:normal;font-stretch:normal;text-align:start;line-height:125%;writing-mode:lr-tb;text-anchor:start;opacity:0.09090899;fill:#787878;fill-opacity:1;stroke:#3f3f3f;stroke-width:2.25659895;stroke-linecap:round;stroke-linejoin:miter;stroke-miterlimit:10;stroke-opacity:0.4107143;filter:url(#filter6525);font-family:Impact;-inkscape-font-specification:Impact Italic"
         d="m 168.40625,68.96875 c -7.42421,0.233298 -14.76804,4.066783 -18.75,10.375 -2.93626,5.515191 -4.63774,11.789307 -6.75449,17.725749 -2.2405,7.128341 -5.38147,14.089751 -6.15176,21.586751 -0.28228,3.1323 1.43266,6.03829 4.1875,7.4375 4.27687,2.08417 9.48285,2.1056 14.15625,1.25 5.13556,-1.17198 9.9204,-3.83663 13.24327,-7.91128 3.20483,-4.46704 4.87378,-9.96785 6.69423,-15.18247 -4.79167,0 -9.58333,0 -14.375,0 -1.5257,4.0939 -2.59416,8.44169 -4.5404,12.32775 -0.64665,1.88835 -3.41236,2.66792 -4.8346,1.48475 -0.7707,-1.45429 0.17696,-3.20349 0.49678,-4.69101 3.53091,-10.3069 6.91283,-20.671187 10.56572,-30.93399 0.68935,-1.869962 1.69251,-4.299274 4.07449,-4.232999 1.09892,-0.222098 2.54195,0.508224 2.1451,1.805673 -0.92187,4.533993 -2.8056,8.81582 -4.17588,13.228169 -1.16778,1.743566 0.71283,1.303406 1.95004,1.324157 3.99167,0 7.98333,0 11.975,0 1.80104,-5.550742 4.18883,-11.072253 4.46875,-16.96875 -0.0205,-4.169073 -3.68422,-7.178414 -7.5,-8.03125 -2.23472,-0.565355 -4.57719,-0.687594 -6.875,-0.59375 z M 75.0625,95.15625 c -5.2663,10.51356 -10.655274,20.99774 -15.96875,31.5 4.635417,0 9.270833,0 13.90625,0 3.581426,-7.2888 7.273938,-14.52348 10.59375,-21.9375 -1.249239,7.2656 -2.353607,14.57155 -2.78125,21.9375 9.135417,0 18.270833,0 27.40625,0 1.47496,-3.40288 2.90109,-6.83223 4.40625,-10.21875 1.89583,0 3.79167,0 5.6875,0 -0.90746,3.40864 -1.83489,6.81209 -2.75,10.21875 4.91667,0 9.83333,0 14.75,0 3.60417,-18.84375 7.20833,-37.6875 10.8125,-56.53125 -7.01042,0 -14.02083,0 -21.03125,0 -8.59717,18.175447 -17.16685,36.36405 -25.78125,54.53125 0.966194,-9.87199 1.881819,-19.74995 2.8125,-29.625 4.52083,-8.302083 9.04167,-16.604167 13.5625,-24.90625 -3.97917,0 -7.95833,0 -11.9375,0 -2.979614,5.478923 -5.955455,10.959901 -8.9375,16.4375 0.961655,-5.454644 1.459726,-10.976478 2.375,-16.4375 -4.645833,0 -9.291667,0 -13.9375,0 -1.0625,8.34375 -2.125,16.6875 -3.1875,25.03125 z m 52.0625,-12.4375 c -2.10525,7.966655 -4.09547,15.96136 -5.90625,24 -1.84375,0 -3.6875,0 -5.53125,0 3.68984,-8.769319 7.81014,-17.362393 11.9375,-25.9375 -0.16667,0.645833 -0.33333,1.291667 -0.5,1.9375 z"
         id="path6972"
         transform="matrix(1.6918527,0,0,2.9018086,-56.816059,-141.38831)"
         inkscape:connector-curvature="0" /><path
         style="font-size:72px;font-style:italic;font-variant:normal;font-weight:normal;font-stretch:normal;text-align:start;line-height:125%;writing-mode:lr-tb;text-anchor:start;opacity:0.09090899;fill:#787878;fill-opacity:1;stroke:#3f3f3f;stroke-width:2.25659895;stroke-linecap:round;stroke-linejoin:miter;stroke-miterlimit:10;stroke-opacity:0.4107143;filter:url(#filter6525);font-family:Impact;-inkscape-font-specification:Impact Italic"
         d="m 168.40625,68.875 c -4.86061,0.161918 -9.65508,1.830509 -13.5625,4.71875 -0.87229,0.617013 -1.80342,1.512283 -2.61404,2.326112 -0.90428,0.982691 -1.67197,1.941337 -2.43221,3.066637 -1.82789,2.935696 -2.86835,6.267966 -4.06993,9.492047 -2.35744,6.922413 -4.74972,13.833984 -7.031,20.781804 -0.94862,3.15105 -1.84427,6.3673 -2.04032,9.66465 -0.12786,2.23213 0.74847,4.54587 2.40948,5.9643 2.69019,2.32146 6.3663,2.9594 9.81552,3.0482 5.02355,0.20771 10.14453,-1.07741 14.33029,-3.89385 1.08445,-0.66503 2.12853,-1.48781 3.06971,-2.23115 1.0766,-0.99569 1.99754,-2.03141 2.76956,-3.22731 2.45943,-3.78118 3.90407,-8.1101 5.41794,-12.33519 0.23958,-0.69792 0.47917,-1.39583 0.71875,-2.09375 -4.875,0 -9.75,0 -14.625,0 -1.34536,3.7846 -2.44863,7.66133 -4.0194,11.36143 -0.54436,1.34226 -1.40961,2.79433 -2.99077,2.95023 -0.97366,0.15542 -2.39813,-0.009 -2.47072,-1.1944 0.0669,-2.35391 1.06646,-4.56548 1.77353,-6.78585 3.11234,-9.11733 6.15459,-18.260139 9.31407,-27.360378 0.73163,-1.623765 1.19677,-3.611103 2.83079,-4.533532 0.99135,-0.326063 2.29044,-0.54782 3.15625,0.125 0.69547,0.729842 0.14911,1.871945 0.0334,2.751917 -1.32831,4.440843 -2.94271,8.789205 -4.40838,13.185583 4.875,0 9.75,0 14.625,0 1.63033,-4.940097 3.55536,-9.836172 4.32297,-15.005701 0.36344,-2.170631 0.10452,-4.553302 -1.28922,-6.324299 -0.51054,-0.754638 -1.29478,-1.491583 -2.05262,-2.009374 -3.12942,-2.26851 -7.24129,-2.55587 -10.98113,-2.441876 z m -93.4375,26.25 c -5.325841,10.54845 -10.713054,21.0822 -16.0625,31.625 4.729167,0 9.458333,0 14.1875,0 2.244907,-4.61579 4.555762,-9.19962 6.801053,-13.81458 1.17984,-2.49007 2.337968,-4.99039 3.480197,-7.49792 -1.203029,7.05804 -2.263249,14.1567 -2.65625,21.3125 9.197917,0 18.395833,0 27.59375,0 1.4596,-3.40566 2.90911,-6.816 4.375,-10.21875 1.83333,0 3.66667,0 5.5,0 -0.91214,3.40743 -1.83409,6.8123 -2.75,10.21875 4.97917,0 9.95833,0 14.9375,0 3.61458,-18.90625 7.22917,-37.8125 10.84375,-56.71875 -7.07292,0 -14.14583,0 -21.21875,0 -8.51017,18.020948 -17.0223,36.04098 -25.53125,54.0625 0.933055,-9.67529 1.84207,-19.35392 2.75,-29.03125 4.54167,-8.34375 9.08333,-16.6875 13.625,-25.03125 -4.05208,0 -8.10417,0 -12.15625,0 C 95.78924,75.352825 92.910472,80.685178 90,86 c 0.918247,-5.300329 1.418496,-10.660881 2.28125,-15.96875 -4.697917,0 -9.395833,0 -14.09375,0 -1.072917,8.364583 -2.145833,16.729167 -3.21875,25.09375 z m 52.0625,-12.4375 c -2.09306,7.944684 -4.09077,15.91998 -5.875,23.9375 -1.77083,0 -3.54167,0 -5.3125,0 3.54102,-8.4231 7.51113,-16.657738 11.4375,-24.90625 -0.0833,0.322917 -0.16667,0.645833 -0.25,0.96875 z"
         id="path6974"
         transform="matrix(1.6918527,0,0,2.9018086,-56.816059,-141.38831)"
         inkscape:connector-curvature="0" /><path
         style="font-size:72px;font-style:italic;font-variant:normal;font-weight:normal;font-stretch:normal;text-align:start;line-height:125%;writing-mode:lr-tb;text-anchor:start;opacity:0.09090899;fill:#787878;fill-opacity:1;stroke:#3f3f3f;stroke-width:2.25659895;stroke-linecap:round;stroke-linejoin:miter;stroke-miterlimit:10;stroke-opacity:0.4107143;filter:url(#filter6525);font-family:Impact;-inkscape-font-specification:Impact Italic"
         d="m 168.40625,68.6875 c -4.90022,0.152127 -9.73168,1.837219 -13.6875,4.71875 -1.90929,1.587869 -3.72541,3.371899 -5.10875,5.455249 -1.79211,2.937914 -2.83752,6.250793 -4.03708,9.460097 -2.36962,6.95347 -4.77152,13.896984 -7.06385,20.876254 -0.96247,3.20212 -1.87848,6.47282 -2.04032,9.82715 -0.10068,2.23584 0.73092,4.55396 2.46213,5.99963 1.97635,1.82006 4.72798,2.59463 7.36104,2.90864 5.12637,0.63185 10.50049,-0.0938 15.08308,-2.55827 2.67426,-1.40945 5.16039,-3.22102 7.0625,-5.59375 1.84535,-2.26916 2.97291,-5.05706 4.10498,-7.74842 1.06467,-2.65053 2.00563,-5.3508 2.89502,-8.06408 -5,0 -10,0 -15,0 -1.3996,3.84849 -2.50595,7.81055 -4.12328,11.57747 -0.54753,1.26914 -1.43671,2.68346 -2.97047,2.76628 -0.79126,0.0644 -1.95244,-0.0499 -2.0555,-1.00326 -0.0544,-1.40768 0.471,-2.7863 0.85995,-4.13052 3.415,-9.99145 6.75004,-20.01289 10.20851,-29.988938 0.57959,-1.338516 1.05351,-2.856126 2.01152,-3.885155 0.77359,-0.789876 2.15942,-1.012031 3.25677,-0.679627 0.85664,0.260806 0.739,1.26884 0.55128,1.955649 -0.7629,3.248609 -2.01651,6.361031 -3.04473,9.532656 -0.52995,1.577842 -1.08754,3.147536 -1.6003,4.730445 5,0 10,0 15,0 1.60447,-4.751711 3.42828,-9.475166 4.27235,-14.43772 0.38102,-2.104145 0.44213,-4.383695 -0.6161,-6.31228 -0.74915,-1.35703 -1.92356,-2.458631 -3.20275,-3.321649 -3.133,-1.923566 -6.98786,-2.197309 -10.5785,-2.084601 z M 78,69.9375 c -1.071594,8.395918 -2.153767,16.791161 -3.21875,25.1875 -5.395539,10.60432 -10.793433,21.20744 -16.1875,31.8125 4.875,0 9.75,0 14.625,0 2.253552,-4.6263 4.564889,-9.22466 6.820786,-13.84919 0.979137,-2.06494 1.941695,-4.1377 2.897964,-6.21331 -1.093547,6.646 -2.071694,13.32894 -2.40625,20.0625 9.302083,0 18.604167,0 27.90625,0 1.46588,-3.40275 2.91541,-6.81308 4.375,-10.21875 1.70833,0 3.41667,0 5.125,0 -0.91591,3.40645 -1.83786,6.81132 -2.75,10.21875 5.125,0 10.25,0 15.375,0 3.61431,-19.03295 7.26061,-38.065244 10.90625,-57.09375 -7.19792,0 -14.39583,0 -21.59375,0 -8.36743,17.717369 -16.72869,35.43773 -25.09375,53.15625 0.875,-9.27083 1.75,-18.54167 2.625,-27.8125 4.58775,-8.450738 9.22349,-16.878907 13.78125,-25.34375 -4.20833,0 -8.41667,0 -12.625,0 -2.749445,4.995265 -5.454953,10.023359 -8.1875,15.03125 0.831938,-4.994404 1.27217,-10.046432 2.15625,-15.03125 -4.84375,0 -9.6875,0 -14.53125,0 l 0,0.09375 z m 47.0625,19.53125 c -1.43766,5.638444 -2.77243,11.30211 -4.09375,16.96875 -1.60417,0 -3.20833,0 -4.8125,0 2.89324,-6.985825 6.16568,-13.80676 9.40131,-20.638523 0.34539,-0.724659 0.69079,-1.449318 1.03619,-2.173977 -0.51042,1.947917 -1.02083,3.895833 -1.53125,5.84375 z"
         id="path6976"
         transform="matrix(1.6918527,0,0,2.9018086,-56.816059,-141.38831)"
         inkscape:connector-curvature="0" /><path
         style="font-size:72px;font-style:italic;font-variant:normal;font-weight:normal;font-stretch:normal;text-align:start;line-height:125%;writing-mode:lr-tb;text-anchor:start;opacity:0.09090899;fill:#787878;fill-opacity:1;stroke:#3f3f3f;stroke-width:2.25659895;stroke-linecap:round;stroke-linejoin:miter;stroke-miterlimit:10;stroke-opacity:0.4107143;filter:url(#filter6525);font-family:Impact;-inkscape-font-specification:Impact Italic"
         d="m 168.40625,68.6875 c -4.90022,0.152127 -9.73168,1.837219 -13.6875,4.71875 -1.90929,1.587869 -3.72541,3.371899 -5.10875,5.455249 -1.79211,2.937914 -2.83752,6.250793 -4.03708,9.460097 -2.36962,6.953471 -4.77152,13.896984 -7.06385,20.876254 -0.96247,3.20212 -1.87848,6.47282 -2.04032,9.82715 -0.10068,2.23584 0.73092,4.55396 2.46213,5.99963 1.97635,1.82006 4.72798,2.59463 7.36104,2.90864 5.12637,0.63185 10.50049,-0.0938 15.08308,-2.55827 2.67426,-1.40945 5.16039,-3.22102 7.0625,-5.59375 1.84535,-2.26916 2.97291,-5.05706 4.10498,-7.74842 1.06467,-2.65053 2.00563,-5.3508 2.89502,-8.06408 -5,0 -10,0 -15,0 -1.3996,3.84849 -2.50595,7.81055 -4.12328,11.57747 -0.54753,1.26914 -1.43671,2.68346 -2.97047,2.76628 -0.79126,0.0644 -1.95244,-0.0499 -2.0555,-1.00326 -0.0544,-1.40768 0.471,-2.7863 0.85995,-4.13052 3.415,-9.99145 6.75004,-20.01289 10.20851,-29.988938 0.57959,-1.338516 1.05351,-2.856126 2.01152,-3.885155 0.77359,-0.789876 2.15942,-1.012031 3.25677,-0.679627 0.85664,0.260806 0.739,1.26884 0.55128,1.955649 -0.7629,3.248609 -2.01651,6.361031 -3.04473,9.532657 -0.52995,1.577841 -1.08754,3.147535 -1.6003,4.730444 5,0 10,0 15,0 1.60447,-4.751711 3.42828,-9.475166 4.27235,-14.43772 0.38102,-2.104145 0.44213,-4.383695 -0.6161,-6.31228 -0.74915,-1.35703 -1.92356,-2.458631 -3.20275,-3.321649 -3.133,-1.923566 -6.98786,-2.197309 -10.5785,-2.084601 z M 78,69.9375 c -1.071594,8.395918 -2.153767,16.791161 -3.21875,25.1875 -5.395539,10.60432 -10.793433,21.20744 -16.1875,31.8125 4.875,0 9.75,0 14.625,0 2.253552,-4.6263 4.564889,-9.22466 6.820786,-13.84919 0.979137,-2.06494 1.941695,-4.1377 2.897964,-6.21331 -1.093547,6.646 -2.071694,13.32894 -2.40625,20.0625 9.302083,0 18.604167,0 27.90625,0 1.46588,-3.40275 2.91541,-6.81308 4.375,-10.21875 1.70833,0 3.41667,0 5.125,0 -0.91591,3.40645 -1.83786,6.81132 -2.75,10.21875 5.125,0 10.25,0 15.375,0 3.61431,-19.03295 7.26061,-38.065244 10.90625,-57.09375 -7.19792,0 -14.39583,0 -21.59375,0 -8.36743,17.717369 -16.72869,35.43773 -25.09375,53.15625 0.875,-9.27083 1.75,-18.54167 2.625,-27.8125 4.58775,-8.450738 9.22349,-16.878907 13.78125,-25.34375 -4.20833,0 -8.41667,0 -12.625,0 -2.749445,4.995265 -5.454953,10.023359 -8.1875,15.03125 0.831938,-4.994404 1.27217,-10.046432 2.15625,-15.03125 -4.84375,0 -9.6875,0 -14.53125,0 l 0,0.09375 z m 47.0625,19.53125 c -1.43766,5.638444 -2.77243,11.30211 -4.09375,16.96875 -1.60417,0 -3.20833,0 -4.8125,0 2.89324,-6.985825 6.16568,-13.80676 9.40131,-20.638523 0.34539,-0.724659 0.69079,-1.449318 1.03619,-2.173977 -0.51042,1.947917 -1.02083,3.895833 -1.53125,5.84375 z"
         id="path6978"
         transform="matrix(1.6918527,0,0,2.9018086,-56.816059,-141.38831)"
         inkscape:connector-curvature="0" /><path
         style="font-size:72px;font-style:italic;font-variant:normal;font-weight:normal;font-stretch:normal;text-align:start;line-height:125%;writing-mode:lr-tb;text-anchor:start;opacity:0.09090899;fill:#787878;fill-opacity:1;stroke:#3f3f3f;stroke-width:2.25659895;stroke-linecap:round;stroke-linejoin:miter;stroke-miterlimit:10;stroke-opacity:0.4107143;filter:url(#filter6525);font-family:Impact;-inkscape-font-specification:Impact Italic"
         d="m 168.40625,68.59375 c -8.72033,0.210191 -17.36659,5.431462 -20.63059,13.640295 -3.37835,8.556995 -6.08242,17.37338 -9.08685,26.069985 -1.18066,4.0182 -2.59988,8.17315 -2.22006,12.41472 0.5441,4.05508 4.49909,6.4411 8.25,7.0625 6.31208,1.1632 13.21012,0.19181 18.5625,-3.4375 3.47862,-1.96883 6.27519,-5.21674 7.90625,-8.9375 1.76082,-3.72084 3.06846,-7.64056 4.40625,-11.53125 -5.08333,0 -10.16667,0 -15.25,0 -1.54319,4.25835 -2.7046,8.83872 -4.71875,12.8125 -0.69214,1.38039 -2.95665,2.17084 -4.09375,1 -0.50877,-1.49324 0.418,-3.10316 0.74034,-4.57304 3.51165,-10.17296 6.83027,-20.417647 10.44716,-30.55196 0.6858,-1.764562 1.6232,-4.161087 3.93007,-3.999429 1.04335,-0.167205 1.96274,0.752601 1.47267,1.790136 -1.2281,4.959094 -3.17536,9.722669 -4.74649,14.584293 5.08333,0 10.16667,0 15.25,0 1.80234,-5.682262 4.27472,-11.313705 4.53125,-17.34375 0.0384,-4.478277 -4.03624,-7.707515 -8.13806,-8.503264 -2.1657,-0.457234 -4.40146,-0.599365 -6.61194,-0.496736 z m -90.5,1.3125 C 76.781301,78.333955 75.830542,86.815328 74.596865,95.209534 69.215232,105.81907 63.795006,116.41023 58.4375,127.03125 c 4.947917,0 9.895833,0 14.84375,0 3.163987,-6.4685 6.479809,-12.86858 9.4375,-19.4375 -1.06027,6.43972 -1.940707,12.91978 -2.3125,19.4375 9.364583,0 18.729167,0 28.09375,0 1.50492,-3.38665 2.93146,-6.81577 4.40625,-10.21875 1.63542,0 3.27083,0 4.90625,0 -0.91512,3.40665 -1.84252,6.81011 -2.75,10.21875 5.1875,0 10.375,0 15.5625,0 3.66553,-19.09166 7.27246,-38.197008 10.96875,-57.28125 -7.26042,0 -14.52083,0 -21.78125,0 -8.33079,17.535847 -16.59938,35.10687 -24.90625,52.65625 0.864583,-9.0625 1.729167,-18.125 2.59375,-27.1875 4.62579,-8.489149 9.24528,-16.981763 13.875,-25.46875 -4.29167,0 -8.58333,0 -12.875,0 -2.663109,4.843735 -5.288785,9.710073 -7.9375,14.5625 0.776582,-4.841765 1.239031,-9.727932 2.0625,-14.5625 -4.90625,0 -9.8125,0 -14.71875,0 l 0,0.15625 z m 47.0625,19.53125 c -1.42901,5.617563 -2.75964,11.25771 -4.0625,16.90625 -1.54167,0 -3.08333,0 -4.625,0 3.10945,-7.304973 6.5083,-14.492592 9.9375,-21.65625 -0.41667,1.583333 -0.83333,3.166667 -1.25,4.75 z"
         id="path6980"
         transform="matrix(1.6918527,0,0,2.9018086,-56.816059,-141.38831)"
         inkscape:connector-curvature="0" /><path
         style="font-size:72px;font-style:italic;font-variant:normal;font-weight:normal;font-stretch:normal;text-align:start;line-height:125%;writing-mode:lr-tb;text-anchor:start;opacity:0.09090899;fill:#787878;fill-opacity:1;stroke:#3f3f3f;stroke-width:2.25659895;stroke-linecap:round;stroke-linejoin:miter;stroke-miterlimit:10;stroke-opacity:0.4107143;filter:url(#filter6525);font-family:Impact;-inkscape-font-specification:Impact Italic"
         d="m 168.40625,68.46875 c -9.31995,0.238491 -18.41569,6.200077 -21.33017,15.216043 -3.33211,9.15054 -6.50462,18.386427 -9.40269,27.684557 -0.98789,4.13695 -2.73081,9.17913 0.23286,12.88065 3.63994,4.14694 9.8688,4.39097 15.03125,3.9375 7.99476,-0.95777 15.77273,-5.87604 18.7253,-13.56512 1.59859,-3.52682 2.83411,-7.20084 4.05595,-10.87238 -5.14583,0 -10.29167,0 -15.4375,0 -1.72768,4.47207 -2.64654,9.38556 -5.1875,13.46875 -0.99352,1.3256 -4.26973,1.3953 -3.59375,-0.84375 1.92714,-7.21111 4.73003,-14.17732 6.99881,-21.292989 1.9026,-5.066568 3.10974,-10.453105 5.65744,-15.238261 0.77727,-1.189157 3.01855,-1.715788 3.90625,-0.53125 -0.20595,3.584479 -2.07624,7.056006 -3.05395,10.548991 -0.58252,1.734857 -1.19604,3.459668 -1.75855,5.201009 5.14583,0 10.29167,0 15.4375,0 1.84221,-5.991429 4.64833,-11.986681 4.54254,-18.268086 -0.6266,-5.367628 -6.34602,-8.0813 -11.26129,-8.263164 -1.18362,-0.125172 -2.37489,-0.102312 -3.5625,-0.0625 z m -90.625,1.4375 c -1.150631,8.474656 -2.047127,17.030242 -3.354813,25.45487 -5.391104,10.5989 -10.790497,21.19362 -16.176437,31.79513 5.03125,0 10.0625,0 15.09375,0 3.039234,-6.28791 6.275543,-12.48016 9.15625,-18.84375 -0.977471,6.25397 -1.942942,12.49022 -2.1875,18.84375 9.416667,0 18.833333,0 28.25,0 1.48127,-3.39563 2.91284,-6.81427 4.375,-10.21875 1.32514,0.42754 5.00309,-0.94701 4.51553,0.86892 -0.85603,3.11447 -1.65414,6.24639 -2.54678,9.34983 5.27083,0 10.54167,0 15.8125,0 3.64168,-19.18059 7.29625,-38.362672 11,-57.53125 -7.32292,0 -14.64583,0 -21.96875,0 -8.22709,17.38136 -16.43611,34.77151 -24.65625,52.15625 0.84375,-8.875 1.6875,-17.75 2.53125,-26.625 4.634,-8.511182 9.27924,-17.016302 13.90625,-25.53125 -4.36458,0 -8.72917,0 -13.09375,0 -2.536959,4.756491 -5.151838,9.476343 -7.71875,14.21875 0.828438,-4.702684 1.217238,-9.517243 2.03125,-14.21875 -4.96875,0 -9.9375,0 -14.90625,0 l -0.0625,0.28125 z M 124.875,89.4375 c -1.41186,5.577096 -2.76323,11.16966 -4.03125,16.78125 -1.23872,-0.41495 -5.23538,1.01707 -3.9181,-1.10961 2.81509,-6.570286 5.87388,-13.032644 8.94935,-19.48414 -0.33333,1.270833 -0.66667,2.541667 -1,3.8125 z"
         id="path6982"
         transform="matrix(1.6918527,0,0,2.9018086,-56.816059,-141.38831)"
         inkscape:connector-curvature="0" /><path
         style="font-size:72px;font-style:italic;font-variant:normal;font-weight:normal;font-stretch:normal;text-align:start;line-height:125%;writing-mode:lr-tb;text-anchor:start;opacity:0.09090899;fill:#787878;fill-opacity:1;stroke:#3f3f3f;stroke-width:2.25659895;stroke-linecap:round;stroke-linejoin:miter;stroke-miterlimit:10;stroke-opacity:0.4107143;filter:url(#filter6525);font-family:Impact;-inkscape-font-specification:Impact Italic"
         d="m 168.40625,68.375 c -9.71538,0.177691 -19.00416,6.698799 -21.75,16.125 -3.41611,9.852614 -7.14861,19.71993 -9.83158,29.76659 -1.16812,4.0617 -1.17134,9.31867 2.89408,11.76466 5.80982,3.44646 13.39301,2.93138 19.46397,0.6923 5.95643,-2.30416 10.90214,-7.00343 13.03313,-13.09299 1.39333,-3.2586 2.50744,-6.62365 3.65915,-9.97431 -5.21875,0 -10.4375,0 -15.65625,0 -1.85836,4.55328 -2.59833,9.73128 -5.46875,13.78125 -1.27007,1.17096 -4.27232,0.65611 -3,-1.5625 2.89155,-9.94602 6.67159,-19.834045 9.89454,-29.758152 1.15895,-2.421222 1.39713,-6.296199 4.23046,-7.241848 1.23102,-0.468831 2.83246,0.269371 1.96875,1.78125 -1.24957,4.848217 -3.18607,9.676148 -4.75,14.5 5.21875,0 10.4375,0 15.65625,0 1.85505,-6.205132 4.98723,-12.418226 4.5,-19.03125 -1.47626,-6.484984 -9.10528,-8.145435 -14.84375,-7.75 z m -90.71875,1.5 C 76.509792,78.376026 75.683098,86.985144 74.28747,95.419064 68.886742,106.02792 63.508516,116.64841 58.09375,127.25 c 5.104167,0 10.208333,0 15.3125,0 2.892752,-6.08115 6.050073,-12.03001 8.84375,-18.15625 -0.954204,6.01747 -1.750547,12.06795 -2.0625,18.15625 9.479167,0 18.958333,0 28.4375,0 1.49818,-3.39259 2.93258,-6.81478 4.40625,-10.21875 2.46838,-0.0189 5.89958,-0.77499 3.80114,2.70314 -0.69121,2.50302 -1.32676,5.02225 -2.05114,7.51561 5.34375,0 10.6875,0 16.03125,0 3.65174,-19.24215 7.3869,-38.470459 11,-57.71875 -7.375,0 -14.75,0 -22.125,0 -8.15707,17.234122 -16.28979,34.48008 -24.4375,51.71875 0.938897,-8.79849 1.473933,-17.72469 2.660322,-26.444891 4.607978,-8.421717 9.175138,-16.866375 13.808428,-25.273859 -4.44792,0 -8.89583,0 -13.34375,0 -2.43877,4.582115 -4.965088,9.12172 -7.4375,13.6875 0.722655,-4.551504 1.166529,-9.143056 1.9375,-13.6875 -5.041667,0 -10.083333,0 -15.125,0 L 77.6875,69.875 z m 47.09375,19.53125 c -1.4151,5.55552 -2.73748,11.13388 -4.03125,16.71875 -2.9176,0.31485 -5.3002,0.24836 -2.88889,-2.93414 2.43761,-5.581837 5.05145,-11.08381 7.63889,-16.59711 -0.23958,0.9375 -0.47917,1.875 -0.71875,2.8125 z"
         id="path6984"
         transform="matrix(1.6918527,0,0,2.9018086,-56.816059,-141.38831)"
         inkscape:connector-curvature="0" /><path
         style="font-size:72px;font-style:italic;font-variant:normal;font-weight:normal;font-stretch:normal;text-align:start;line-height:125%;writing-mode:lr-tb;text-anchor:start;opacity:0.09090899;fill:#787878;fill-opacity:1;stroke:#3f3f3f;stroke-width:2.25659895;stroke-linecap:round;stroke-linejoin:miter;stroke-miterlimit:10;stroke-opacity:0.4107143;filter:url(#filter6525);font-family:Impact;-inkscape-font-specification:Impact Italic"
         d="m 168.40625,68.28125 c -9.96088,0.166451 -19.35774,6.957155 -22.0166,16.656672 -3.44616,10.320347 -7.65934,20.515538 -10.01465,31.124578 -1.27874,4.49633 0.6985,9.59461 5.28125,11.125 11.67445,4.2812 26.60097,-1.47014 30.69169,-13.61805 1.38799,-3.27044 2.5193,-6.63992 3.65206,-10.00695 -5.28125,0 -10.5625,0 -15.84375,0 -2.01298,4.57415 -2.52776,10.1324 -5.71875,13.96875 -1.13921,0.86965 -3.77931,0.40264 -2.59375,-1.625 3.33639,-11.09006 7.35922,-22.201955 11.15625,-33.21875 0.46081,-2.118505 2.44454,-4.802648 4.8125,-3.5 -0.39327,5.142964 -3.1323,9.974256 -4.47492,14.965724 -0.48456,2.466787 5.2876,0.437939 7.31867,1.096776 2.62095,-0.544255 6.79107,1.093967 8.44264,-0.816986 1.74143,-6.107594 5.09733,-12.297603 4.08861,-18.776764 -1.66601,-6.250558 -9.13631,-7.726422 -14.78125,-7.375 z M 77.59375,69.875 C 76.388493,78.401554 75.620349,87.065438 74.148222,95.508114 68.74222,106.11874 63.355674,116.73939 57.9375,127.34375 c 5.177083,0 10.354167,0 15.53125,0 2.816916,-5.90859 5.872527,-11.70189 8.59375,-17.65625 -0.916199,5.85199 -1.68407,11.73615 -1.96875,17.65625 9.541667,0 19.083333,0 28.625,0 1.44291,-3.41264 2.91925,-6.81143 4.375,-10.21875 4.52969,-1.08333 4.66452,1.19781 3.03881,4.82671 -0.59035,2.69868 -3.03324,6.76142 1.67994,5.39204 4.35417,0 8.70833,0 13.0625,0 3.71212,-19.29666 7.408,-38.598597 11.0625,-57.90625 -7.4375,0 -14.875,0 -22.3125,0 -8.06011,17.110035 -16.14797,34.20735 -24.21875,51.3125 0.94847,-8.61561 1.375867,-17.39029 2.645254,-25.907927 4.607326,-8.468468 9.218636,-16.93477 13.823496,-25.404573 -4.50624,0.174358 -9.44081,-0.344332 -13.6875,0.25 -2.354167,4.322917 -4.708333,8.645833 -7.0625,12.96875 0.666389,-4.400683 1.103358,-8.83388 1.875,-13.21875 -5.114583,0 -10.229167,0 -15.34375,0 l -0.0625,0.4375 z m 47.09375,19.5 c -1.45687,5.475842 -2.7602,11.09472 -4.03125,16.65625 -4.61881,1.10486 -3.70063,-1.47899 -1.93246,-4.53651 2.09281,-4.740613 4.26818,-9.328824 6.46371,-13.99474 -0.16667,0.625 -0.33333,1.25 -0.5,1.875 z"
         id="path6986"
         transform="matrix(1.6918527,0,0,2.9018086,-56.816059,-141.38831)"
         inkscape:connector-curvature="0" /></g><g
       transform="translate(2.9447488,6.0695017)"
       style="fill:#ffffff;fill-opacity:1;stroke:none"
       id="g7390"><path
         style="font-size:72px;font-style:italic;font-variant:normal;font-weight:normal;font-stretch:normal;text-align:start;line-height:125%;writing-mode:lr-tb;text-anchor:start;opacity:0.09090899;fill:#ffffff;fill-opacity:1;stroke:none;filter:url(#filter6525);font-family:Impact;-inkscape-font-specification:Impact Italic"
         d="m 168.4375,69.28125 c -9.57109,0.161398 -18.52996,6.655262 -21.11035,16.000422 -3.43521,10.264556 -7.66283,20.425078 -9.95215,30.968328 -1.31458,4.2244 0.77157,8.99429 5.1875,10.21875 11.22349,3.62941 24.9856,-1.79953 28.87473,-13.30737 1.18018,-2.82189 2.21246,-5.69894 3.18777,-8.59888 -4.59375,0 -9.1875,0 -13.78125,0 -2.0133,4.50765 -2.40533,10.18538 -5.8125,13.8125 -1.64086,1.21539 -5.1432,0.49679 -4.3125,-2.15625 3.43412,-11.51635 7.59092,-22.969156 11.53606,-34.367788 0.52584,-2.675395 3.65572,-5.234097 6.21394,-3.382212 1.29317,2.495749 -1.02361,5.421261 -1.45315,7.950882 -0.17961,2.339937 -3.67826,7.054302 -1.67185,7.830368 4.26042,0 8.52083,0 12.78125,0 1.74104,-6.001409 4.88102,-11.968235 4.125,-18.34375 -1.68346,-5.787368 -8.64032,-6.910304 -13.8125,-6.625 z M 75.375,95.1875 c -5.230693,10.37318 -10.548438,20.77286 -15.8125,31.15625 4.427083,0 8.854167,0 13.28125,0 3.924348,-7.89993 7.839489,-15.76764 11.40625,-23.78125 -1.293024,7.88824 -2.654801,15.78825 -3.09375,23.78125 8.958333,0 17.916667,0 26.875,0 1.6526,-3.2826 2.727,-7.46484 4.71875,-10.21875 2.34998,0.40841 7.68011,-1.48507 5.25927,2.55568 0.10661,2.32684 -3.69876,7.64847 -0.57177,7.66307 4.19792,0 8.39583,0 12.59375,0 3.5625,-18.63542 7.125,-37.270833 10.6875,-55.90625 -6.82292,0 -13.64583,0 -20.46875,0 -8.80417,18.624012 -17.5911,37.25619 -26.40625,55.875 1.048265,-10.4708 1.930921,-20.99486 3.03125,-31.4375 4.4375,-8.145833 8.875,-16.291667 13.3125,-24.4375 -3.75,0 -7.5,0 -11.25,0 -3.228484,5.927455 -6.464898,11.850595 -9.6875,17.78125 1.014536,-5.904236 1.633455,-11.865674 2.5625,-17.78125 -4.427083,0 -8.854167,0 -13.28125,0 -1.052083,8.25 -2.104167,16.5 -3.15625,24.75 z m 52.03125,-12.40625 c -2.1199,8.041123 -4.06002,16.110327 -5.9375,24.25 -2.02523,-0.53017 -7.92324,1.52377 -5.36209,-2.07275 3.88039,-9.077392 8.13393,-17.78607 12.42459,-26.7085 -0.375,1.510417 -0.75,3.020833 -1.125,4.53125 z"
         id="path7392"
         transform="matrix(1.6918527,0,0,2.9018086,-56.816059,-141.38831)"
         inkscape:connector-curvature="0" /><path
         style="font-size:72px;font-style:italic;font-variant:normal;font-weight:normal;font-stretch:normal;text-align:start;line-height:125%;writing-mode:lr-tb;text-anchor:start;opacity:0.09090899;fill:#ffffff;fill-opacity:1;stroke:none;filter:url(#filter6525);font-family:Impact;-inkscape-font-specification:Impact Italic"
         d="m 168.4375,69.1875 c -9.19287,0.128678 -18.18811,6.264043 -20.89835,15.239742 -3.44649,9.80424 -7.10313,19.600448 -9.85165,29.635258 -0.99334,3.77925 -1.51537,8.94186 2.46875,11.28125 5.34174,3.23502 12.41336,2.71583 18.0613,0.88885 5.94711,-2.11447 10.98943,-6.62153 13.09495,-12.5451 1.2937,-3.01662 2.41083,-6.10077 3.4375,-9.21875 -4.65625,0 -9.3125,0 -13.96875,0 -1.86898,4.45256 -2.50799,9.67723 -5.46875,13.53125 -1.47504,1.55465 -5.4019,0.94576 -4.46875,-1.75 2.45898,-9.03427 6.01756,-17.977071 8.89425,-26.973985 1.54733,-3.533734 1.91324,-8.022127 4.79325,-10.744765 1.46384,-1.06467 4.88657,-0.736707 4.21875,1.71875 -1.09182,4.765124 -3.05437,9.394503 -4.53125,14.09375 4.65625,0 9.3125,0 13.96875,0 1.77882,-5.905771 4.73368,-11.795692 4.25,-18.0625 -1.40056,-6.14513 -8.65288,-7.407803 -14,-7.09375 z m -93.15625,26 c -5.290067,10.41747 -10.583601,20.8332 -15.875,31.25 4.5,0 9,0 13.5,0 3.799841,-7.67807 7.634339,-15.33094 11.125,-23.15625 -1.248175,7.68093 -2.564463,15.37386 -2.96875,23.15625 9.010417,0 18.020833,0 27.03125,0 1.47424,-3.4037 2.9073,-6.82652 4.40625,-10.21875 1.71226,0.36289 5.38037,-0.71214 5.9375,0.5 -0.875,3.23958 -1.75,6.47917 -2.625,9.71875 4.77083,0 9.54167,0 14.3125,0 3.57292,-18.69792 7.14583,-37.395833 10.71875,-56.09375 -6.88542,0 -13.77083,0 -20.65625,0 -8.73219,18.47773 -17.43983,36.96712 -26.1875,55.4375 1.010903,-10.27677 1.884847,-20.58604 2.96875,-30.84375 4.46875,-8.197917 8.9375,-16.395833 13.40625,-24.59375 -3.84375,0 -7.6875,0 -11.53125,0 -3.133342,5.771956 -6.287011,11.532911 -9.40625,17.3125 0.980852,-5.749842 1.555653,-11.558379 2.5,-17.3125 -4.489583,0 -8.979167,0 -13.46875,0 -1.0625,8.28125 -2.125,16.5625 -3.1875,24.84375 z M 127.3125,82.75 c -2.11927,8.027227 -4.1239,16.085613 -5.9375,24.1875 -1.55525,-0.51931 -6.2831,1.10541 -5.59656,-0.9319 3.84756,-9.115417 8.17518,-18.018162 12.44031,-26.9431 -0.30208,1.229167 -0.60417,2.458333 -0.90625,3.6875 z"
         id="path7394"
         transform="matrix(1.6918527,0,0,2.9018086,-56.816059,-141.38831)"
         inkscape:connector-curvature="0" /><path
         style="font-size:72px;font-style:italic;font-variant:normal;font-weight:normal;font-stretch:normal;text-align:start;line-height:125%;writing-mode:lr-tb;text-anchor:start;opacity:0.09090899;fill:#ffffff;fill-opacity:1;stroke:none;filter:url(#filter6525);font-family:Impact;-inkscape-font-specification:Impact Italic"
         d="m 168.4375,69.09375 c -8.9545,0.161844 -17.86461,5.894637 -20.6875,14.5625 -3.41262,9.089835 -6.46426,18.33613 -9.43912,27.57886 -0.93538,4.08371 -2.77016,8.94918 0.0641,12.63989 3.10782,3.61263 8.48789,4.02158 13.03125,3.8125 7.27029,-0.36062 14.74053,-4.2523 18.34375,-10.59375 2.18347,-4.03156 3.65791,-8.39637 5.15625,-12.71875 -4.72917,0 -9.45833,0 -14.1875,0 -1.74369,4.39805 -2.62249,9.31269 -5.1875,13.28125 -1.09965,1.36854 -4.45702,1.71319 -4.6875,-0.53125 0.86307,-5.29901 3.25278,-10.26389 4.77949,-15.41215 2.55514,-7.080199 4.55533,-14.382335 7.50176,-21.3066 0.7283,-2.047341 3.76181,-3.238924 5.40625,-1.5625 0.52751,2.296818 -0.96669,4.687064 -1.51007,6.945298 -0.98623,2.882817 -1.97245,5.765635 -2.95868,8.648452 4.72917,0 9.45833,0 14.1875,0 1.82171,-5.826219 4.5775,-11.651808 4.34375,-17.75 -0.79546,-5.434149 -6.81938,-7.609703 -11.73724,-7.606239 -0.80585,-0.04377 -1.61301,-0.0079 -2.41901,0.01249 z m -93.25,26.0625 c -5.283324,10.46555 -10.629864,20.91546 -15.9375,31.375 4.572917,0 9.145833,0 13.71875,0 C 76.636933,119.04608 80.413691,111.6138 83.8125,104 c -1.300028,7.49291 -2.426464,14.92875 -2.84375,22.53125 9.072917,0 18.145833,0 27.21875,0 1.46239,-3.40437 2.89343,-6.82326 4.375,-10.21875 1.96875,0 3.9375,0 5.90625,0 -0.9715,3.39287 -1.84655,6.81479 -2.78125,10.21875 4.85417,0 9.70833,0 14.5625,0 3.58333,-18.76042 7.16667,-37.520833 10.75,-56.28125 -6.95833,0 -13.91667,0 -20.875,0 -8.6595,18.321371 -17.2927,36.65526 -25.96875,54.96875 0.972933,-10.07973 1.840569,-20.19481 2.90625,-30.25 4.48958,-8.239583 8.97917,-16.479167 13.46875,-24.71875 -3.91667,0 -7.83333,0 -11.75,0 -3.051373,5.614969 -6.108935,11.226579 -9.15625,16.84375 1.006839,-5.591075 1.456891,-11.23154 2.4375,-16.84375 -4.5625,0 -9.125,0 -13.6875,0 -1.0625,8.302083 -2.125,16.604167 -3.1875,24.90625 z m 52.03125,-12.4375 c -2.10201,8.007557 -4.13569,16.038882 -5.90625,24.125 -1.91667,0 -3.83333,0 -5.75,0 3.74873,-9.118932 8.08897,-17.983886 12.34375,-26.875 -0.22917,0.916667 -0.45833,1.833333 -0.6875,2.75 z"
         id="path7396"
         transform="matrix(1.6918527,0,0,2.9018086,-56.816059,-141.38831)"
         inkscape:connector-curvature="0" /><path
         style="font-size:72px;font-style:italic;font-variant:normal;font-weight:normal;font-stretch:normal;text-align:start;line-height:125%;writing-mode:lr-tb;text-anchor:start;opacity:0.09090899;fill:#ffffff;fill-opacity:1;stroke:none;filter:url(#filter6525);font-family:Impact;-inkscape-font-specification:Impact Italic"
         d="m 168.40625,68.96875 c -7.42421,0.233298 -14.76804,4.066783 -18.75,10.375 -2.93626,5.515191 -4.63774,11.789307 -6.75449,17.725749 -2.2405,7.128341 -5.38147,14.089751 -6.15176,21.586751 -0.28228,3.1323 1.43266,6.03829 4.1875,7.4375 4.27687,2.08417 9.48285,2.1056 14.15625,1.25 5.13556,-1.17198 9.9204,-3.83663 13.24327,-7.91128 3.20483,-4.46704 4.87378,-9.96785 6.69423,-15.18247 -4.79167,0 -9.58333,0 -14.375,0 -1.5257,4.0939 -2.59416,8.44169 -4.5404,12.32775 -0.64665,1.88835 -3.41236,2.66792 -4.8346,1.48475 -0.7707,-1.45429 0.17696,-3.20349 0.49678,-4.69101 3.53091,-10.3069 6.91283,-20.671187 10.56572,-30.93399 0.68935,-1.869962 1.69251,-4.299274 4.07449,-4.232999 1.09892,-0.222098 2.54195,0.508224 2.1451,1.805673 -0.92187,4.533993 -2.8056,8.81582 -4.17588,13.228169 -1.16778,1.743566 0.71283,1.303406 1.95004,1.324157 3.99167,0 7.98333,0 11.975,0 1.80104,-5.550742 4.18883,-11.072253 4.46875,-16.96875 -0.0205,-4.169073 -3.68422,-7.178414 -7.5,-8.03125 -2.23472,-0.565355 -4.57719,-0.687594 -6.875,-0.59375 z M 75.0625,95.15625 c -5.2663,10.51356 -10.655274,20.99774 -15.96875,31.5 4.635417,0 9.270833,0 13.90625,0 3.581426,-7.2888 7.273938,-14.52348 10.59375,-21.9375 -1.249239,7.2656 -2.353607,14.57155 -2.78125,21.9375 9.135417,0 18.270833,0 27.40625,0 1.47496,-3.40288 2.90109,-6.83223 4.40625,-10.21875 1.89583,0 3.79167,0 5.6875,0 -0.90746,3.40864 -1.83489,6.81209 -2.75,10.21875 4.91667,0 9.83333,0 14.75,0 3.60417,-18.84375 7.20833,-37.6875 10.8125,-56.53125 -7.01042,0 -14.02083,0 -21.03125,0 -8.59717,18.175447 -17.16685,36.36405 -25.78125,54.53125 0.966194,-9.87199 1.881819,-19.74995 2.8125,-29.625 4.52083,-8.302083 9.04167,-16.604167 13.5625,-24.90625 -3.97917,0 -7.95833,0 -11.9375,0 -2.979614,5.478923 -5.955455,10.959901 -8.9375,16.4375 0.961655,-5.454644 1.459726,-10.976478 2.375,-16.4375 -4.645833,0 -9.291667,0 -13.9375,0 -1.0625,8.34375 -2.125,16.6875 -3.1875,25.03125 z m 52.0625,-12.4375 c -2.10525,7.966655 -4.09547,15.96136 -5.90625,24 -1.84375,0 -3.6875,0 -5.53125,0 3.68984,-8.769319 7.81014,-17.362393 11.9375,-25.9375 -0.16667,0.645833 -0.33333,1.291667 -0.5,1.9375 z"
         id="path7398"
         transform="matrix(1.6918527,0,0,2.9018086,-56.816059,-141.38831)"
         inkscape:connector-curvature="0" /><path
         style="font-size:72px;font-style:italic;font-variant:normal;font-weight:normal;font-stretch:normal;text-align:start;line-height:125%;writing-mode:lr-tb;text-anchor:start;opacity:0.09090899;fill:#ffffff;fill-opacity:1;stroke:none;filter:url(#filter6525);font-family:Impact;-inkscape-font-specification:Impact Italic"
         d="m 168.40625,68.875 c -4.86061,0.161918 -9.65508,1.830509 -13.5625,4.71875 -0.87229,0.617013 -1.80342,1.512283 -2.61404,2.326112 -0.90428,0.982691 -1.67197,1.941337 -2.43221,3.066637 -1.82789,2.935696 -2.86835,6.267966 -4.06993,9.492047 -2.35744,6.922413 -4.74972,13.833984 -7.031,20.781804 -0.94862,3.15105 -1.84427,6.3673 -2.04032,9.66465 -0.12786,2.23213 0.74847,4.54587 2.40948,5.9643 2.69019,2.32146 6.3663,2.9594 9.81552,3.0482 5.02355,0.20771 10.14453,-1.07741 14.33029,-3.89385 1.08445,-0.66503 2.12853,-1.48781 3.06971,-2.23115 1.0766,-0.99569 1.99754,-2.03141 2.76956,-3.22731 2.45943,-3.78118 3.90407,-8.1101 5.41794,-12.33519 0.23958,-0.69792 0.47917,-1.39583 0.71875,-2.09375 -4.875,0 -9.75,0 -14.625,0 -1.34536,3.7846 -2.44863,7.66133 -4.0194,11.36143 -0.54436,1.34226 -1.40961,2.79433 -2.99077,2.95023 -0.97366,0.15542 -2.39813,-0.009 -2.47072,-1.1944 0.0669,-2.35391 1.06646,-4.56548 1.77353,-6.78585 3.11234,-9.11733 6.15459,-18.260139 9.31407,-27.360378 0.73163,-1.623765 1.19677,-3.611103 2.83079,-4.533532 0.99135,-0.326063 2.29044,-0.54782 3.15625,0.125 0.69547,0.729842 0.14911,1.871945 0.0334,2.751917 -1.32831,4.440843 -2.94271,8.789205 -4.40838,13.185583 4.875,0 9.75,0 14.625,0 1.63033,-4.940097 3.55536,-9.836172 4.32297,-15.005701 0.36344,-2.170631 0.10452,-4.553302 -1.28922,-6.324299 -0.51054,-0.754638 -1.29478,-1.491583 -2.05262,-2.009374 -3.12942,-2.26851 -7.24129,-2.55587 -10.98113,-2.441876 z m -93.4375,26.25 c -5.325841,10.54845 -10.713054,21.0822 -16.0625,31.625 4.729167,0 9.458333,0 14.1875,0 2.244907,-4.61579 4.555762,-9.19962 6.801053,-13.81458 1.17984,-2.49007 2.337968,-4.99039 3.480197,-7.49792 -1.203029,7.05804 -2.263249,14.1567 -2.65625,21.3125 9.197917,0 18.395833,0 27.59375,0 1.4596,-3.40566 2.90911,-6.816 4.375,-10.21875 1.83333,0 3.66667,0 5.5,0 -0.91214,3.40743 -1.83409,6.8123 -2.75,10.21875 4.97917,0 9.95833,0 14.9375,0 3.61458,-18.90625 7.22917,-37.8125 10.84375,-56.71875 -7.07292,0 -14.14583,0 -21.21875,0 -8.51017,18.020948 -17.0223,36.04098 -25.53125,54.0625 0.933055,-9.67529 1.84207,-19.35392 2.75,-29.03125 4.54167,-8.34375 9.08333,-16.6875 13.625,-25.03125 -4.05208,0 -8.10417,0 -12.15625,0 C 95.78924,75.352825 92.910472,80.685178 90,86 c 0.918247,-5.300329 1.418496,-10.660881 2.28125,-15.96875 -4.697917,0 -9.395833,0 -14.09375,0 -1.072917,8.364583 -2.145833,16.729167 -3.21875,25.09375 z m 52.0625,-12.4375 c -2.09306,7.944684 -4.09077,15.91998 -5.875,23.9375 -1.77083,0 -3.54167,0 -5.3125,0 3.54102,-8.4231 7.51113,-16.657738 11.4375,-24.90625 -0.0833,0.322917 -0.16667,0.645833 -0.25,0.96875 z"
         id="path7400"
         transform="matrix(1.6918527,0,0,2.9018086,-56.816059,-141.38831)"
         inkscape:connector-curvature="0" /><path
         style="font-size:72px;font-style:italic;font-variant:normal;font-weight:normal;font-stretch:normal;text-align:start;line-height:125%;writing-mode:lr-tb;text-anchor:start;opacity:0.09090899;fill:#ffffff;fill-opacity:1;stroke:none;filter:url(#filter6525);font-family:Impact;-inkscape-font-specification:Impact Italic"
         d="m 168.40625,68.6875 c -4.90022,0.152127 -9.73168,1.837219 -13.6875,4.71875 -1.90929,1.587869 -3.72541,3.371899 -5.10875,5.455249 -1.79211,2.937914 -2.83752,6.250793 -4.03708,9.460097 -2.36962,6.95347 -4.77152,13.896984 -7.06385,20.876254 -0.96247,3.20212 -1.87848,6.47282 -2.04032,9.82715 -0.10068,2.23584 0.73092,4.55396 2.46213,5.99963 1.97635,1.82006 4.72798,2.59463 7.36104,2.90864 5.12637,0.63185 10.50049,-0.0938 15.08308,-2.55827 2.67426,-1.40945 5.16039,-3.22102 7.0625,-5.59375 1.84535,-2.26916 2.97291,-5.05706 4.10498,-7.74842 1.06467,-2.65053 2.00563,-5.3508 2.89502,-8.06408 -5,0 -10,0 -15,0 -1.3996,3.84849 -2.50595,7.81055 -4.12328,11.57747 -0.54753,1.26914 -1.43671,2.68346 -2.97047,2.76628 -0.79126,0.0644 -1.95244,-0.0499 -2.0555,-1.00326 -0.0544,-1.40768 0.471,-2.7863 0.85995,-4.13052 3.415,-9.99145 6.75004,-20.01289 10.20851,-29.988938 0.57959,-1.338516 1.05351,-2.856126 2.01152,-3.885155 0.77359,-0.789876 2.15942,-1.012031 3.25677,-0.679627 0.85664,0.260806 0.739,1.26884 0.55128,1.955649 -0.7629,3.248609 -2.01651,6.361031 -3.04473,9.532656 -0.52995,1.577842 -1.08754,3.147536 -1.6003,4.730445 5,0 10,0 15,0 1.60447,-4.751711 3.42828,-9.475166 4.27235,-14.43772 0.38102,-2.104145 0.44213,-4.383695 -0.6161,-6.31228 -0.74915,-1.35703 -1.92356,-2.458631 -3.20275,-3.321649 -3.133,-1.923566 -6.98786,-2.197309 -10.5785,-2.084601 z M 78,69.9375 c -1.071594,8.395918 -2.153767,16.791161 -3.21875,25.1875 -5.395539,10.60432 -10.793433,21.20744 -16.1875,31.8125 4.875,0 9.75,0 14.625,0 2.253552,-4.6263 4.564889,-9.22466 6.820786,-13.84919 0.979137,-2.06494 1.941695,-4.1377 2.897964,-6.21331 -1.093547,6.646 -2.071694,13.32894 -2.40625,20.0625 9.302083,0 18.604167,0 27.90625,0 1.46588,-3.40275 2.91541,-6.81308 4.375,-10.21875 1.70833,0 3.41667,0 5.125,0 -0.91591,3.40645 -1.83786,6.81132 -2.75,10.21875 5.125,0 10.25,0 15.375,0 3.61431,-19.03295 7.26061,-38.065244 10.90625,-57.09375 -7.19792,0 -14.39583,0 -21.59375,0 -8.36743,17.717369 -16.72869,35.43773 -25.09375,53.15625 0.875,-9.27083 1.75,-18.54167 2.625,-27.8125 4.58775,-8.450738 9.22349,-16.878907 13.78125,-25.34375 -4.20833,0 -8.41667,0 -12.625,0 -2.749445,4.995265 -5.454953,10.023359 -8.1875,15.03125 0.831938,-4.994404 1.27217,-10.046432 2.15625,-15.03125 -4.84375,0 -9.6875,0 -14.53125,0 l 0,0.09375 z m 47.0625,19.53125 c -1.43766,5.638444 -2.77243,11.30211 -4.09375,16.96875 -1.60417,0 -3.20833,0 -4.8125,0 2.89324,-6.985825 6.16568,-13.80676 9.40131,-20.638523 0.34539,-0.724659 0.69079,-1.449318 1.03619,-2.173977 -0.51042,1.947917 -1.02083,3.895833 -1.53125,5.84375 z"
         id="path7402"
         transform="matrix(1.6918527,0,0,2.9018086,-56.816059,-141.38831)"
         inkscape:connector-curvature="0" /><path
         style="font-size:72px;font-style:italic;font-variant:normal;font-weight:normal;font-stretch:normal;text-align:start;line-height:125%;writing-mode:lr-tb;text-anchor:start;opacity:0.09090899;fill:#ffffff;fill-opacity:1;stroke:none;filter:url(#filter6525);font-family:Impact;-inkscape-font-specification:Impact Italic"
         d="m 168.40625,68.6875 c -4.90022,0.152127 -9.73168,1.837219 -13.6875,4.71875 -1.90929,1.587869 -3.72541,3.371899 -5.10875,5.455249 -1.79211,2.937914 -2.83752,6.250793 -4.03708,9.460097 -2.36962,6.953471 -4.77152,13.896984 -7.06385,20.876254 -0.96247,3.20212 -1.87848,6.47282 -2.04032,9.82715 -0.10068,2.23584 0.73092,4.55396 2.46213,5.99963 1.97635,1.82006 4.72798,2.59463 7.36104,2.90864 5.12637,0.63185 10.50049,-0.0938 15.08308,-2.55827 2.67426,-1.40945 5.16039,-3.22102 7.0625,-5.59375 1.84535,-2.26916 2.97291,-5.05706 4.10498,-7.74842 1.06467,-2.65053 2.00563,-5.3508 2.89502,-8.06408 -5,0 -10,0 -15,0 -1.3996,3.84849 -2.50595,7.81055 -4.12328,11.57747 -0.54753,1.26914 -1.43671,2.68346 -2.97047,2.76628 -0.79126,0.0644 -1.95244,-0.0499 -2.0555,-1.00326 -0.0544,-1.40768 0.471,-2.7863 0.85995,-4.13052 3.415,-9.99145 6.75004,-20.01289 10.20851,-29.988938 0.57959,-1.338516 1.05351,-2.856126 2.01152,-3.885155 0.77359,-0.789876 2.15942,-1.012031 3.25677,-0.679627 0.85664,0.260806 0.739,1.26884 0.55128,1.955649 -0.7629,3.248609 -2.01651,6.361031 -3.04473,9.532657 -0.52995,1.577841 -1.08754,3.147535 -1.6003,4.730444 5,0 10,0 15,0 1.60447,-4.751711 3.42828,-9.475166 4.27235,-14.43772 0.38102,-2.104145 0.44213,-4.383695 -0.6161,-6.31228 -0.74915,-1.35703 -1.92356,-2.458631 -3.20275,-3.321649 -3.133,-1.923566 -6.98786,-2.197309 -10.5785,-2.084601 z M 78,69.9375 c -1.071594,8.395918 -2.153767,16.791161 -3.21875,25.1875 -5.395539,10.60432 -10.793433,21.20744 -16.1875,31.8125 4.875,0 9.75,0 14.625,0 2.253552,-4.6263 4.564889,-9.22466 6.820786,-13.84919 0.979137,-2.06494 1.941695,-4.1377 2.897964,-6.21331 -1.093547,6.646 -2.071694,13.32894 -2.40625,20.0625 9.302083,0 18.604167,0 27.90625,0 1.46588,-3.40275 2.91541,-6.81308 4.375,-10.21875 1.70833,0 3.41667,0 5.125,0 -0.91591,3.40645 -1.83786,6.81132 -2.75,10.21875 5.125,0 10.25,0 15.375,0 3.61431,-19.03295 7.26061,-38.065244 10.90625,-57.09375 -7.19792,0 -14.39583,0 -21.59375,0 -8.36743,17.717369 -16.72869,35.43773 -25.09375,53.15625 0.875,-9.27083 1.75,-18.54167 2.625,-27.8125 4.58775,-8.450738 9.22349,-16.878907 13.78125,-25.34375 -4.20833,0 -8.41667,0 -12.625,0 -2.749445,4.995265 -5.454953,10.023359 -8.1875,15.03125 0.831938,-4.994404 1.27217,-10.046432 2.15625,-15.03125 -4.84375,0 -9.6875,0 -14.53125,0 l 0,0.09375 z m 47.0625,19.53125 c -1.43766,5.638444 -2.77243,11.30211 -4.09375,16.96875 -1.60417,0 -3.20833,0 -4.8125,0 2.89324,-6.985825 6.16568,-13.80676 9.40131,-20.638523 0.34539,-0.724659 0.69079,-1.449318 1.03619,-2.173977 -0.51042,1.947917 -1.02083,3.895833 -1.53125,5.84375 z"
         id="path7404"
         transform="matrix(1.6918527,0,0,2.9018086,-56.816059,-141.38831)"
         inkscape:connector-curvature="0" /><path
         style="font-size:72px;font-style:italic;font-variant:normal;font-weight:normal;font-stretch:normal;text-align:start;line-height:125%;writing-mode:lr-tb;text-anchor:start;opacity:0.09090899;fill:#ffffff;fill-opacity:1;stroke:none;filter:url(#filter6525);font-family:Impact;-inkscape-font-specification:Impact Italic"
         d="m 168.40625,68.59375 c -8.72033,0.210191 -17.36659,5.431462 -20.63059,13.640295 -3.37835,8.556995 -6.08242,17.37338 -9.08685,26.069985 -1.18066,4.0182 -2.59988,8.17315 -2.22006,12.41472 0.5441,4.05508 4.49909,6.4411 8.25,7.0625 6.31208,1.1632 13.21012,0.19181 18.5625,-3.4375 3.47862,-1.96883 6.27519,-5.21674 7.90625,-8.9375 1.76082,-3.72084 3.06846,-7.64056 4.40625,-11.53125 -5.08333,0 -10.16667,0 -15.25,0 -1.54319,4.25835 -2.7046,8.83872 -4.71875,12.8125 -0.69214,1.38039 -2.95665,2.17084 -4.09375,1 -0.50877,-1.49324 0.418,-3.10316 0.74034,-4.57304 3.51165,-10.17296 6.83027,-20.417647 10.44716,-30.55196 0.6858,-1.764562 1.6232,-4.161087 3.93007,-3.999429 1.04335,-0.167205 1.96274,0.752601 1.47267,1.790136 -1.2281,4.959094 -3.17536,9.722669 -4.74649,14.584293 5.08333,0 10.16667,0 15.25,0 1.80234,-5.682262 4.27472,-11.313705 4.53125,-17.34375 0.0384,-4.478277 -4.03624,-7.707515 -8.13806,-8.503264 -2.1657,-0.457234 -4.40146,-0.599365 -6.61194,-0.496736 z m -90.5,1.3125 C 76.781301,78.333955 75.830542,86.815328 74.596865,95.209534 69.215232,105.81907 63.795006,116.41023 58.4375,127.03125 c 4.947917,0 9.895833,0 14.84375,0 3.163987,-6.4685 6.479809,-12.86858 9.4375,-19.4375 -1.06027,6.43972 -1.940707,12.91978 -2.3125,19.4375 9.364583,0 18.729167,0 28.09375,0 1.50492,-3.38665 2.93146,-6.81577 4.40625,-10.21875 1.63542,0 3.27083,0 4.90625,0 -0.91512,3.40665 -1.84252,6.81011 -2.75,10.21875 5.1875,0 10.375,0 15.5625,0 3.66553,-19.09166 7.27246,-38.197008 10.96875,-57.28125 -7.26042,0 -14.52083,0 -21.78125,0 -8.33079,17.535847 -16.59938,35.10687 -24.90625,52.65625 0.864583,-9.0625 1.729167,-18.125 2.59375,-27.1875 4.62579,-8.489149 9.24528,-16.981763 13.875,-25.46875 -4.29167,0 -8.58333,0 -12.875,0 -2.663109,4.843735 -5.288785,9.710073 -7.9375,14.5625 0.776582,-4.841765 1.239031,-9.727932 2.0625,-14.5625 -4.90625,0 -9.8125,0 -14.71875,0 l 0,0.15625 z m 47.0625,19.53125 c -1.42901,5.617563 -2.75964,11.25771 -4.0625,16.90625 -1.54167,0 -3.08333,0 -4.625,0 3.10945,-7.304973 6.5083,-14.492592 9.9375,-21.65625 -0.41667,1.583333 -0.83333,3.166667 -1.25,4.75 z"
         id="path7406"
         transform="matrix(1.6918527,0,0,2.9018086,-56.816059,-141.38831)"
         inkscape:connector-curvature="0" /><path
         style="font-size:72px;font-style:italic;font-variant:normal;font-weight:normal;font-stretch:normal;text-align:start;line-height:125%;writing-mode:lr-tb;text-anchor:start;opacity:0.09090899;fill:#ffffff;fill-opacity:1;stroke:none;filter:url(#filter6525);font-family:Impact;-inkscape-font-specification:Impact Italic"
         d="m 168.40625,68.46875 c -9.31995,0.238491 -18.41569,6.200077 -21.33017,15.216043 -3.33211,9.15054 -6.50462,18.386427 -9.40269,27.684557 -0.98789,4.13695 -2.73081,9.17913 0.23286,12.88065 3.63994,4.14694 9.8688,4.39097 15.03125,3.9375 7.99476,-0.95777 15.77273,-5.87604 18.7253,-13.56512 1.59859,-3.52682 2.83411,-7.20084 4.05595,-10.87238 -5.14583,0 -10.29167,0 -15.4375,0 -1.72768,4.47207 -2.64654,9.38556 -5.1875,13.46875 -0.99352,1.3256 -4.26973,1.3953 -3.59375,-0.84375 1.92714,-7.21111 4.73003,-14.17732 6.99881,-21.292989 1.9026,-5.066568 3.10974,-10.453105 5.65744,-15.238261 0.77727,-1.189157 3.01855,-1.715788 3.90625,-0.53125 -0.20595,3.584479 -2.07624,7.056006 -3.05395,10.548991 -0.58252,1.734857 -1.19604,3.459668 -1.75855,5.201009 5.14583,0 10.29167,0 15.4375,0 1.84221,-5.991429 4.64833,-11.986681 4.54254,-18.268086 -0.6266,-5.367628 -6.34602,-8.0813 -11.26129,-8.263164 -1.18362,-0.125172 -2.37489,-0.102312 -3.5625,-0.0625 z m -90.625,1.4375 c -1.150631,8.474656 -2.047127,17.030242 -3.354813,25.45487 -5.391104,10.5989 -10.790497,21.19362 -16.176437,31.79513 5.03125,0 10.0625,0 15.09375,0 3.039234,-6.28791 6.275543,-12.48016 9.15625,-18.84375 -0.977471,6.25397 -1.942942,12.49022 -2.1875,18.84375 9.416667,0 18.833333,0 28.25,0 1.48127,-3.39563 2.91284,-6.81427 4.375,-10.21875 1.32514,0.42754 5.00309,-0.94701 4.51553,0.86892 -0.85603,3.11447 -1.65414,6.24639 -2.54678,9.34983 5.27083,0 10.54167,0 15.8125,0 3.64168,-19.18059 7.29625,-38.362672 11,-57.53125 -7.32292,0 -14.64583,0 -21.96875,0 -8.22709,17.38136 -16.43611,34.77151 -24.65625,52.15625 0.84375,-8.875 1.6875,-17.75 2.53125,-26.625 4.634,-8.511182 9.27924,-17.016302 13.90625,-25.53125 -4.36458,0 -8.72917,0 -13.09375,0 -2.536959,4.756491 -5.151838,9.476343 -7.71875,14.21875 0.828438,-4.702684 1.217238,-9.517243 2.03125,-14.21875 -4.96875,0 -9.9375,0 -14.90625,0 l -0.0625,0.28125 z M 124.875,89.4375 c -1.41186,5.577096 -2.76323,11.16966 -4.03125,16.78125 -1.23872,-0.41495 -5.23538,1.01707 -3.9181,-1.10961 2.81509,-6.570286 5.87388,-13.032644 8.94935,-19.48414 -0.33333,1.270833 -0.66667,2.541667 -1,3.8125 z"
         id="path7408"
         transform="matrix(1.6918527,0,0,2.9018086,-56.816059,-141.38831)"
         inkscape:connector-curvature="0" /><path
         style="font-size:72px;font-style:italic;font-variant:normal;font-weight:normal;font-stretch:normal;text-align:start;line-height:125%;writing-mode:lr-tb;text-anchor:start;opacity:0.09090899;fill:#ffffff;fill-opacity:1;stroke:none;filter:url(#filter6525);font-family:Impact;-inkscape-font-specification:Impact Italic"
         d="m 168.40625,68.375 c -9.71538,0.177691 -19.00416,6.698799 -21.75,16.125 -3.41611,9.852614 -7.14861,19.71993 -9.83158,29.76659 -1.16812,4.0617 -1.17134,9.31867 2.89408,11.76466 5.80982,3.44646 13.39301,2.93138 19.46397,0.6923 5.95643,-2.30416 10.90214,-7.00343 13.03313,-13.09299 1.39333,-3.2586 2.50744,-6.62365 3.65915,-9.97431 -5.21875,0 -10.4375,0 -15.65625,0 -1.85836,4.55328 -2.59833,9.73128 -5.46875,13.78125 -1.27007,1.17096 -4.27232,0.65611 -3,-1.5625 2.89155,-9.94602 6.67159,-19.834045 9.89454,-29.758152 1.15895,-2.421222 1.39713,-6.296199 4.23046,-7.241848 1.23102,-0.468831 2.83246,0.269371 1.96875,1.78125 -1.24957,4.848217 -3.18607,9.676148 -4.75,14.5 5.21875,0 10.4375,0 15.65625,0 1.85505,-6.205132 4.98723,-12.418226 4.5,-19.03125 -1.47626,-6.484984 -9.10528,-8.145435 -14.84375,-7.75 z m -90.71875,1.5 C 76.509792,78.376026 75.683098,86.985144 74.28747,95.419064 68.886742,106.02792 63.508516,116.64841 58.09375,127.25 c 5.104167,0 10.208333,0 15.3125,0 2.892752,-6.08115 6.050073,-12.03001 8.84375,-18.15625 -0.954204,6.01747 -1.750547,12.06795 -2.0625,18.15625 9.479167,0 18.958333,0 28.4375,0 1.49818,-3.39259 2.93258,-6.81478 4.40625,-10.21875 2.46838,-0.0189 5.89958,-0.77499 3.80114,2.70314 -0.69121,2.50302 -1.32676,5.02225 -2.05114,7.51561 5.34375,0 10.6875,0 16.03125,0 3.65174,-19.24215 7.3869,-38.470459 11,-57.71875 -7.375,0 -14.75,0 -22.125,0 -8.15707,17.234122 -16.28979,34.48008 -24.4375,51.71875 0.938897,-8.79849 1.473933,-17.72469 2.660322,-26.444891 4.607978,-8.421717 9.175138,-16.866375 13.808428,-25.273859 -4.44792,0 -8.89583,0 -13.34375,0 -2.43877,4.582115 -4.965088,9.12172 -7.4375,13.6875 0.722655,-4.551504 1.166529,-9.143056 1.9375,-13.6875 -5.041667,0 -10.083333,0 -15.125,0 L 77.6875,69.875 z m 47.09375,19.53125 c -1.4151,5.55552 -2.73748,11.13388 -4.03125,16.71875 -2.9176,0.31485 -5.3002,0.24836 -2.88889,-2.93414 2.43761,-5.581837 5.05145,-11.08381 7.63889,-16.59711 -0.23958,0.9375 -0.47917,1.875 -0.71875,2.8125 z"
         id="path7410"
         transform="matrix(1.6918527,0,0,2.9018086,-56.816059,-141.38831)"
         inkscape:connector-curvature="0" /><path
         style="font-size:72px;font-style:italic;font-variant:normal;font-weight:normal;font-stretch:normal;text-align:start;line-height:125%;writing-mode:lr-tb;text-anchor:start;opacity:0.09090899;fill:#ffffff;fill-opacity:1;stroke:none;filter:url(#filter6525);font-family:Impact;-inkscape-font-specification:Impact Italic"
         d="m 168.40625,68.28125 c -9.96088,0.166451 -19.35774,6.957155 -22.0166,16.656672 -3.44616,10.320347 -7.65934,20.515538 -10.01465,31.124578 -1.27874,4.49633 0.6985,9.59461 5.28125,11.125 11.67445,4.2812 26.60097,-1.47014 30.69169,-13.61805 1.38799,-3.27044 2.5193,-6.63992 3.65206,-10.00695 -5.28125,0 -10.5625,0 -15.84375,0 -2.01298,4.57415 -2.52776,10.1324 -5.71875,13.96875 -1.13921,0.86965 -3.77931,0.40264 -2.59375,-1.625 3.33639,-11.09006 7.35922,-22.201955 11.15625,-33.21875 0.46081,-2.118505 2.44454,-4.802648 4.8125,-3.5 -0.39327,5.142964 -3.1323,9.974256 -4.47492,14.965724 -0.48456,2.466787 5.2876,0.437939 7.31867,1.096776 2.62095,-0.544255 6.79107,1.093967 8.44264,-0.816986 1.74143,-6.107594 5.09733,-12.297603 4.08861,-18.776764 -1.66601,-6.250558 -9.13631,-7.726422 -14.78125,-7.375 z M 77.59375,69.875 C 76.388493,78.401554 75.620349,87.065438 74.148222,95.508114 68.74222,106.11874 63.355674,116.73939 57.9375,127.34375 c 5.177083,0 10.354167,0 15.53125,0 2.816916,-5.90859 5.872527,-11.70189 8.59375,-17.65625 -0.916199,5.85199 -1.68407,11.73615 -1.96875,17.65625 9.541667,0 19.083333,0 28.625,0 1.44291,-3.41264 2.91925,-6.81143 4.375,-10.21875 4.52969,-1.08333 4.66452,1.19781 3.03881,4.82671 -0.59035,2.69868 -3.03324,6.76142 1.67994,5.39204 4.35417,0 8.70833,0 13.0625,0 3.71212,-19.29666 7.408,-38.598597 11.0625,-57.90625 -7.4375,0 -14.875,0 -22.3125,0 -8.06011,17.110035 -16.14797,34.20735 -24.21875,51.3125 0.94847,-8.61561 1.375867,-17.39029 2.645254,-25.907927 4.607326,-8.468468 9.218636,-16.93477 13.823496,-25.404573 -4.50624,0.174358 -9.44081,-0.344332 -13.6875,0.25 -2.354167,4.322917 -4.708333,8.645833 -7.0625,12.96875 0.666389,-4.400683 1.103358,-8.83388 1.875,-13.21875 -5.114583,0 -10.229167,0 -15.34375,0 l -0.0625,0.4375 z m 47.09375,19.5 c -1.45687,5.475842 -2.7602,11.09472 -4.03125,16.65625 -4.61881,1.10486 -3.70063,-1.47899 -1.93246,-4.53651 2.09281,-4.740613 4.26818,-9.328824 6.46371,-13.99474 -0.16667,0.625 -0.33333,1.25 -0.5,1.875 z"
         id="path7412"
         transform="matrix(1.6918527,0,0,2.9018086,-56.816059,-141.38831)"
         inkscape:connector-curvature="0" /></g><flowRoot
       xml:space="preserve"
       id="flowRoot3528"
       style="font-size:72px;font-style:italic;font-variant:normal;font-weight:normal;font-stretch:normal;text-align:start;line-height:125%;writing-mode:lr-tb;text-anchor:start;fill:url(#linearGradient7462-651);fill-opacity:1;stroke:#3e353e;stroke-width:2.25659895;stroke-linecap:round;stroke-linejoin:miter;stroke-miterlimit:10;stroke-opacity:0.4107143;stroke-dasharray:none;filter:url(#filter6525);font-family:Impact;-inkscape-font-specification:Impact Italic"
       transform="matrix(1.6918527,0,0,2.9018086,-54.258891,-135.27612)"><flowRegion
         id="flowRegion3530"
         style="fill:url(#linearGradient5573-921-530-370);fill-opacity:1"><rect
           id="rect3532"
           width="179.44435"
           height="174.31738"
           x="58.763084"
           y="60.34063"
           style="font-size:72px;font-style:italic;font-variant:normal;font-weight:normal;font-stretch:normal;text-align:start;line-height:125%;writing-mode:lr-tb;text-anchor:start;fill:url(#linearGradient5573-32-545-563);fill-opacity:1;stroke:#3e353e;stroke-width:2.25659895;stroke-linecap:round;stroke-miterlimit:10;stroke-opacity:0.4107143;stroke-dasharray:none;font-family:Impact;-inkscape-font-specification:Impact Italic" /></flowRegion><flowPara
         id="flowPara3534"
         style="fill:url(#linearGradient7460-928);fill-opacity:1;stroke:#3e353e;stroke-width:2.25659895;stroke-linecap:round;stroke-miterlimit:10;stroke-opacity:0.4107143;stroke-dasharray:none">XAC</flowPara></flowRoot></g></g></svg>